<svg width="20" height="20" viewBox="0 0 20 20" fill="none" xmlns="http://www.w3.org/2000/svg">
  <path d="M5.27287 20C3.92189 20 2.57088 19.5098 1.54241 18.5291C-0.514355 16.5676 -0.514126 13.3767 1.54303 11.4156L12.3881 1.07491C13.8915 -0.358412 16.3374 -0.358194 17.8404 1.07491C18.5767 1.77691 18.978 2.70024 18.978 3.68168C18.978 4.66312 18.5765 5.58642 17.8479 6.28094L7.8415 15.8211L7.70876 15.9342C6.85944 16.7327 5.48732 16.7292 4.64215 15.9237L4.62225 15.9043C4.21575 15.5169 3.98908 14.9957 3.98908 14.4417C3.98908 13.8877 4.21578 13.3663 4.62702 12.9744L9.82484 8.01817C10.0272 7.82494 10.3556 7.82494 10.558 8.01817C10.7607 8.21117 10.7607 8.5242 10.558 8.71721L5.36039 13.6737C5.1449 13.8791 5.02627 14.152 5.02627 14.442C5.02627 14.7318 5.1449 15.0047 5.36039 15.2101L5.38029 15.2295C5.81954 15.6483 6.54255 15.6482 6.9866 15.2248L17.1146 5.58203C17.6475 5.074 17.9409 4.39926 17.9409 3.68184C17.9409 2.96441 17.6475 2.28968 17.1146 1.78165C16.0082 0.726449 14.2204 0.726449 13.1212 1.77435L2.27617 12.1146C0.623424 13.6903 0.623195 16.2543 2.27555 17.8298C3.92852 19.4055 6.61764 19.4055 8.26997 17.8298L19.1149 7.48895C19.3175 7.29572 19.6456 7.29572 19.848 7.48895C20.0507 7.68195 20.0507 7.99498 19.848 8.18802L9.00314 18.5289C7.9749 19.5095 6.62385 20 5.27287 20Z" fill="#333333"/>
</svg>
