<svg width="17" height="18" viewBox="0 0 17 18" fill="none" xmlns="http://www.w3.org/2000/svg">
  <path d="M16.4564 4.81615L9.2966 0.0468647C9.24884 0.0162643 9.19331 0 9.13658 0C9.07986 0 9.02433 0.0162643 8.97657 0.0468647L0.130746 5.94603C0.0905231 5.97275 0.0575357 6.00901 0.0347232 6.05157C0.0119108 6.09413 -1.80092e-05 6.14167 2.04075e-08 6.18996V12.8365C2.0669e-05 12.8838 0.0115846 12.9304 0.0336885 12.9722C0.0557924 13.0141 0.0877686 13.0499 0.126843 13.0765L7.15198 17.9551C7.1745 17.9693 7.19877 17.9804 7.22418 17.9883H7.2398C7.26507 17.9961 7.29139 18.0001 7.31785 18C7.34367 17.9999 7.36932 17.996 7.39396 17.9883C7.39969 17.99 7.40579 17.99 7.41152 17.9883C7.435 17.9811 7.45734 17.9706 7.47787 17.9571L16.4564 11.9506C16.497 11.9238 16.5303 11.8873 16.5531 11.8443C16.576 11.8013 16.5877 11.7533 16.5871 11.7047V5.06984C16.5888 5.01991 16.5777 4.97039 16.5548 4.92598C16.5319 4.88158 16.498 4.84377 16.4564 4.81615ZM9.13463 0.645953L15.7227 5.03081L13.5761 6.4573L7.09344 2.00805L9.13463 0.645953ZM7.37835 10.5982C7.36214 10.5963 7.34577 10.5963 7.32956 10.5982L0.780571 6.22118L4.21508 3.9263L10.7036 8.37556L7.37835 10.5982ZM6.56655 2.36321L13.0551 6.81246L11.2266 8.03211L4.74002 3.577L6.56655 2.36321ZM11.5134 8.53948L13.2697 7.36862L13.2073 10.1592L11.5134 11.2715V8.53948ZM0.585428 6.7988L7.02514 11.0919V17.1472L0.585428 12.6824V6.7988ZM7.61057 17.1589V11.1407L10.928 8.92976V11.814C10.928 11.8916 10.9588 11.9661 11.0137 12.021C11.0686 12.0758 11.1431 12.1067 11.2207 12.1067C11.2778 12.107 11.3336 12.09 11.3807 12.0579L13.66 10.5631C13.7 10.5374 13.733 10.5022 13.7562 10.4607C13.7793 10.4192 13.7919 10.3726 13.7927 10.325L13.8688 6.97053L16.0017 5.54794V11.5486L7.61057 17.1589Z" fill="#DC0C1C"/>
  <path d="M6.13336 12.3854C6.19626 12.3854 6.25749 12.3652 6.30799 12.3277C6.3585 12.2902 6.39558 12.2374 6.41375 12.1772C6.43193 12.117 6.43022 12.0526 6.40889 11.9934C6.38756 11.9342 6.34774 11.8835 6.29533 11.8487L2.91155 9.59483C2.84686 9.55161 2.76765 9.53587 2.69134 9.55105C2.61504 9.56624 2.5479 9.61112 2.50468 9.67581C2.46146 9.74051 2.44572 9.81972 2.46091 9.89602C2.47609 9.97233 2.52097 10.0395 2.58566 10.0827L5.97139 12.3405C6.01992 12.3708 6.07617 12.3863 6.13336 12.3854Z" fill="#DC0C1C"/>
  <path d="M6.29522 13.5859L4.35745 12.296C4.32567 12.2714 4.28918 12.2537 4.25024 12.2438C4.2113 12.234 4.17074 12.2322 4.1311 12.2387C4.09146 12.2452 4.05358 12.2598 4.01981 12.2815C3.98605 12.3033 3.95712 12.3318 3.93484 12.3652C3.91256 12.3986 3.8974 12.4363 3.89029 12.4758C3.88319 12.5154 3.8843 12.5559 3.89356 12.595C3.90281 12.6341 3.92002 12.6709 3.94409 12.703C3.96817 12.7352 3.99861 12.762 4.03351 12.7819L5.97128 14.0738C6.00331 14.095 6.03922 14.1098 6.07696 14.1172C6.11469 14.1246 6.15352 14.1245 6.19121 14.1169C6.22891 14.1093 6.26473 14.0943 6.29664 14.0729C6.32855 14.0514 6.35592 14.0238 6.37718 13.9918C6.39846 13.9598 6.41322 13.9239 6.42062 13.8861C6.42802 13.8484 6.42791 13.8096 6.4203 13.7719C6.41269 13.7342 6.39772 13.6984 6.37626 13.6664C6.3548 13.6345 6.32726 13.6072 6.29522 13.5859Z" fill="#DC0C1C"/>
</svg>
