<svg width="15" height="15" viewBox="0 0 15 15" fill="none" xmlns="http://www.w3.org/2000/svg">
  <path d="M14.6786 0H0.321429C0.23618 0 0.154424 0.0338647 0.0941444 0.0941442C0.0338649 0.154424 0 0.23618 0 0.321429V14.6786C0 14.7638 0.0338649 14.8456 0.0941444 14.9059C0.154424 14.9661 0.23618 15 0.321429 15H14.6786C14.7638 15 14.8456 14.9661 14.9059 14.9059C14.9661 14.8456 15 14.7638 15 14.6786V0.321429C15 0.23618 14.9661 0.154424 14.9059 0.0941442C14.8456 0.0338647 14.7638 0 14.6786 0ZM14.3571 14.3571H0.642857V0.642857H14.3571V14.3571Z" fill="#DC0C1C"/>
  <path d="M5.25002 7.07164H9.53573C9.62098 7.07164 9.70274 7.03777 9.76302 6.97749C9.8233 6.91721 9.85716 6.83546 9.85716 6.75021V2.46449C9.85716 2.37925 9.8233 2.29749 9.76302 2.23721C9.70274 2.17693 9.62098 2.14307 9.53573 2.14307H5.25002C5.16477 2.14307 5.08301 2.17693 5.02273 2.23721C4.96245 2.29749 4.92859 2.37925 4.92859 2.46449V6.75021C4.92859 6.83546 4.96245 6.91721 5.02273 6.97749C5.08301 7.03777 5.16477 7.07164 5.25002 7.07164ZM5.57145 2.78592H7.07145V3.53592C7.07145 3.62117 7.10531 3.70293 7.16559 3.76321C7.22587 3.82349 7.30763 3.85735 7.39287 3.85735C7.47812 3.85735 7.55988 3.82349 7.62016 3.76321C7.68044 3.70293 7.7143 3.62117 7.7143 3.53592V2.78592H9.2143V6.42878H5.57145V2.78592Z" fill="#DC0C1C"/>
  <path d="M7.92859 8.25014V12.5359C7.92859 12.6211 7.96245 12.7029 8.02273 12.7631C8.08301 12.8234 8.16477 12.8573 8.25002 12.8573H12.5357C12.621 12.8573 12.7027 12.8234 12.763 12.7631C12.8233 12.7029 12.8572 12.6211 12.8572 12.5359V8.25014C12.8572 8.16489 12.8233 8.08313 12.763 8.02285C12.7027 7.96258 12.621 7.92871 12.5357 7.92871H8.25002C8.16477 7.92871 8.08301 7.96258 8.02273 8.02285C7.96245 8.08313 7.92859 8.16489 7.92859 8.25014ZM8.57145 8.57157H10.0714V9.32157C10.0714 9.40682 10.1053 9.48857 10.1656 9.54885C10.2259 9.60913 10.3076 9.643 10.3929 9.643C10.4781 9.643 10.5599 9.60913 10.6202 9.54885C10.6804 9.48857 10.7143 9.40682 10.7143 9.32157V8.57157H12.2143V12.2144H8.57145V8.57157Z" fill="#DC0C1C"/>
  <path d="M2.25002 12.8573H6.53573C6.62098 12.8573 6.70274 12.8234 6.76302 12.7631C6.8233 12.7029 6.85716 12.6211 6.85716 12.5359V8.25014C6.85716 8.16489 6.8233 8.08313 6.76302 8.02285C6.70274 7.96258 6.62098 7.92871 6.53573 7.92871H2.25002C2.16477 7.92871 2.08301 7.96258 2.02273 8.02285C1.96245 8.08313 1.92859 8.16489 1.92859 8.25014V12.5359C1.92859 12.6211 1.96245 12.7029 2.02273 12.7631C2.08301 12.8234 2.16477 12.8573 2.25002 12.8573ZM2.57145 8.57157H4.07145V9.32157C4.07145 9.40682 4.10531 9.48857 4.16559 9.54885C4.22587 9.60913 4.30763 9.643 4.39287 9.643C4.47812 9.643 4.55988 9.60913 4.62016 9.54885C4.68044 9.48857 4.7143 9.40682 4.7143 9.32157V8.57157H6.2143V12.2144H2.57145V8.57157Z" fill="#DC0C1C"/>
</svg>
