<svg width="74" height="19" viewBox="0 0 74 19" fill="none" xmlns="http://www.w3.org/2000/svg">
  <g opacity="0.6">
    <path d="M16 0L17.1226 3.45492H20.7553L17.8164 5.59017L18.9389 9.04508L16 6.90983L13.0611 9.04508L14.1836 5.59017L11.2447 3.45492H14.8774L16 0Z" fill="#FFE55C"/>
    <path d="M56 0L57.1226 3.45492H60.7553L57.8164 5.59017L58.9389 9.04508L56 6.90983L53.0611 9.04508L54.1836 5.59017L51.2447 3.45492H54.8774L56 0Z" fill="#FFE55C"/>
    <path d="M26 0L27.1226 3.45492H30.7553L27.8164 5.59017L28.9389 9.04508L26 6.90983L23.0611 9.04508L24.1836 5.59017L21.2447 3.45492H24.8774L26 0Z" fill="#FFE55C"/>
    <path d="M36 0L37.1226 3.45492H40.7553L37.8164 5.59017L38.9389 9.04508L36 6.90983L33.0611 9.04508L34.1836 5.59017L31.2447 3.45492H34.8774L36 0Z" fill="#FFE55C"/>
    <path d="M46 0L47.1226 3.45492H50.7553L47.8164 5.59017L48.9389 9.04508L46 6.90983L43.0611 9.04508L44.1836 5.59017L41.2447 3.45492H44.8774L46 0Z" fill="#FFE55C"/>
  </g>
  <path d="M0.944 12.4H5.04V12.904H1.528V14.736H3.36C4.02133 14.736 4.52267 14.872 4.864 15.144C5.21067 15.416 5.384 15.8107 5.384 16.328C5.384 16.8667 5.19733 17.28 4.824 17.568C4.456 17.856 3.92533 18 3.232 18H0.944V12.4ZM3.224 17.528C3.74133 17.528 4.13067 17.4293 4.392 17.232C4.65867 17.0347 4.792 16.7413 4.792 16.352C4.792 15.968 4.66133 15.6827 4.4 15.496C4.144 15.304 3.752 15.208 3.224 15.208H1.528V17.528H3.224ZM8.3565 18.04C7.95117 18.04 7.58583 17.9493 7.2605 17.768C6.93517 17.5813 6.67917 17.3253 6.4925 17C6.30583 16.6747 6.2125 16.3067 6.2125 15.896C6.2125 15.4853 6.30583 15.1173 6.4925 14.792C6.67917 14.4667 6.93517 14.2133 7.2605 14.032C7.58583 13.8507 7.95117 13.76 8.3565 13.76C8.76183 13.76 9.12717 13.8507 9.4525 14.032C9.77783 14.2133 10.0312 14.4667 10.2125 14.792C10.3992 15.1173 10.4925 15.4853 10.4925 15.896C10.4925 16.3067 10.3992 16.6747 10.2125 17C10.0312 17.3253 9.77783 17.5813 9.4525 17.768C9.12717 17.9493 8.76183 18.04 8.3565 18.04ZM8.3565 17.536C8.65517 17.536 8.92183 17.4693 9.1565 17.336C9.3965 17.1973 9.58317 17.0027 9.7165 16.752C9.84983 16.5013 9.9165 16.216 9.9165 15.896C9.9165 15.576 9.84983 15.2907 9.7165 15.04C9.58317 14.7893 9.3965 14.5973 9.1565 14.464C8.92183 14.3253 8.65517 14.256 8.3565 14.256C8.05783 14.256 7.7885 14.3253 7.5485 14.464C7.31383 14.5973 7.12717 14.7893 6.9885 15.04C6.85517 15.2907 6.7885 15.576 6.7885 15.896C6.7885 16.216 6.85517 16.5013 6.9885 16.752C7.12717 17.0027 7.31383 17.1973 7.5485 17.336C7.7885 17.4693 8.05783 17.536 8.3565 17.536ZM15.123 13.792V18H14.555V14.296H12.539L12.483 15.336C12.4403 16.2107 12.339 16.8827 12.179 17.352C12.019 17.8213 11.7337 18.056 11.323 18.056C11.211 18.056 11.075 18.0347 10.915 17.992L10.955 17.504C11.051 17.5253 11.1177 17.536 11.155 17.536C11.3737 17.536 11.539 17.4347 11.651 17.232C11.763 17.0293 11.8377 16.7787 11.875 16.48C11.9123 16.1813 11.9443 15.7867 11.971 15.296L12.043 13.792H15.123ZM20.4177 16.072H16.8977C16.9297 16.5093 17.0977 16.864 17.4017 17.136C17.7057 17.4027 18.0897 17.536 18.5537 17.536C18.815 17.536 19.055 17.4907 19.2737 17.4C19.4924 17.304 19.6817 17.1653 19.8417 16.984L20.1617 17.352C19.975 17.576 19.7404 17.7467 19.4577 17.864C19.1804 17.9813 18.8737 18.04 18.5377 18.04C18.1057 18.04 17.7217 17.9493 17.3857 17.768C17.055 17.5813 16.7964 17.3253 16.6097 17C16.423 16.6747 16.3297 16.3067 16.3297 15.896C16.3297 15.4853 16.4177 15.1173 16.5937 14.792C16.775 14.4667 17.0204 14.2133 17.3297 14.032C17.6444 13.8507 17.9964 13.76 18.3857 13.76C18.775 13.76 19.1244 13.8507 19.4337 14.032C19.743 14.2133 19.9857 14.4667 20.1617 14.792C20.3377 15.112 20.4257 15.48 20.4257 15.896L20.4177 16.072ZM18.3857 14.248C17.9804 14.248 17.639 14.3787 17.3617 14.64C17.0897 14.896 16.935 15.232 16.8977 15.648H19.8817C19.8444 15.232 19.687 14.896 19.4097 14.64C19.1377 14.3787 18.7964 14.248 18.3857 14.248ZM25.363 16.072H21.843C21.875 16.5093 22.043 16.864 22.347 17.136C22.651 17.4027 23.035 17.536 23.499 17.536C23.7603 17.536 24.0003 17.4907 24.219 17.4C24.4377 17.304 24.627 17.1653 24.787 16.984L25.107 17.352C24.9203 17.576 24.6857 17.7467 24.403 17.864C24.1257 17.9813 23.819 18.04 23.483 18.04C23.051 18.04 22.667 17.9493 22.331 17.768C22.0003 17.5813 21.7417 17.3253 21.555 17C21.3683 16.6747 21.275 16.3067 21.275 15.896C21.275 15.4853 21.363 15.1173 21.539 14.792C21.7203 14.4667 21.9657 14.2133 22.275 14.032C22.5897 13.8507 22.9417 13.76 23.331 13.76C23.7203 13.76 24.0697 13.8507 24.379 14.032C24.6883 14.2133 24.931 14.4667 25.107 14.792C25.283 15.112 25.371 15.48 25.371 15.896L25.363 16.072ZM23.331 14.248C22.9257 14.248 22.5843 14.3787 22.307 14.64C22.035 14.896 21.8803 15.232 21.843 15.648H24.827C24.7897 15.232 24.6323 14.896 24.355 14.64C24.083 14.3787 23.7417 14.248 23.331 14.248ZM32.1541 17.488V18H28.2261V17.592L30.5541 15.312C30.8474 15.024 31.0447 14.776 31.1461 14.568C31.2527 14.3547 31.3061 14.1413 31.3061 13.928C31.3061 13.5973 31.1914 13.3413 30.9621 13.16C30.7381 12.9733 30.4154 12.88 29.9941 12.88C29.3381 12.88 28.8287 13.088 28.4661 13.504L28.0581 13.152C28.2767 12.896 28.5541 12.6987 28.8901 12.56C29.2314 12.4213 29.6154 12.352 30.0421 12.352C30.6127 12.352 31.0634 12.488 31.3941 12.76C31.7301 13.0267 31.8981 13.3947 31.8981 13.864C31.8981 14.152 31.8341 14.4293 31.7061 14.696C31.5781 14.9627 31.3354 15.2693 30.9781 15.616L29.0741 17.488H32.1541ZM35.0777 18.048C34.6457 18.048 34.259 17.9333 33.9177 17.704C33.5817 17.4747 33.3177 17.1467 33.1257 16.72C32.939 16.288 32.8457 15.7813 32.8457 15.2C32.8457 14.6187 32.939 14.1147 33.1257 13.688C33.3177 13.256 33.5817 12.9253 33.9177 12.696C34.259 12.4667 34.6457 12.352 35.0777 12.352C35.5097 12.352 35.8937 12.4667 36.2297 12.696C36.571 12.9253 36.8377 13.256 37.0297 13.688C37.2217 14.1147 37.3177 14.6187 37.3177 15.2C37.3177 15.7813 37.2217 16.288 37.0297 16.72C36.8377 17.1467 36.571 17.4747 36.2297 17.704C35.8937 17.9333 35.5097 18.048 35.0777 18.048ZM35.0777 17.52C35.403 17.52 35.6884 17.4293 35.9337 17.248C36.1844 17.0667 36.379 16.8027 36.5177 16.456C36.6564 16.1093 36.7257 15.6907 36.7257 15.2C36.7257 14.7093 36.6564 14.2907 36.5177 13.944C36.379 13.5973 36.1844 13.3333 35.9337 13.152C35.6884 12.9707 35.403 12.88 35.0777 12.88C34.7524 12.88 34.4644 12.9707 34.2137 13.152C33.9684 13.3333 33.7764 13.5973 33.6377 13.944C33.499 14.2907 33.4297 14.7093 33.4297 15.2C33.4297 15.6907 33.499 16.1093 33.6377 16.456C33.7764 16.8027 33.9684 17.0667 34.2137 17.248C34.4644 17.4293 34.7524 17.52 35.0777 17.52ZM42.3643 18.04C41.959 18.04 41.5936 17.9493 41.2683 17.768C40.943 17.5813 40.687 17.3253 40.5003 17C40.3136 16.6747 40.2203 16.3067 40.2203 15.896C40.2203 15.4853 40.3136 15.1173 40.5003 14.792C40.687 14.4667 40.943 14.2133 41.2683 14.032C41.5936 13.8507 41.959 13.76 42.3643 13.76C42.7696 13.76 43.135 13.8507 43.4603 14.032C43.7856 14.2133 44.039 14.4667 44.2203 14.792C44.407 15.1173 44.5003 15.4853 44.5003 15.896C44.5003 16.3067 44.407 16.6747 44.2203 17C44.039 17.3253 43.7856 17.5813 43.4603 17.768C43.135 17.9493 42.7696 18.04 42.3643 18.04ZM42.3643 17.536C42.663 17.536 42.9296 17.4693 43.1643 17.336C43.4043 17.1973 43.591 17.0027 43.7243 16.752C43.8576 16.5013 43.9243 16.216 43.9243 15.896C43.9243 15.576 43.8576 15.2907 43.7243 15.04C43.591 14.7893 43.4043 14.5973 43.1643 14.464C42.9296 14.3253 42.663 14.256 42.3643 14.256C42.0656 14.256 41.7963 14.3253 41.5563 14.464C41.3216 14.5973 41.135 14.7893 40.9963 15.04C40.863 15.2907 40.7963 15.576 40.7963 15.896C40.7963 16.216 40.863 16.5013 40.9963 16.752C41.135 17.0027 41.3216 17.1973 41.5563 17.336C41.7963 17.4693 42.0656 17.536 42.3643 17.536ZM48.518 14.296H46.926V18H46.358V14.296H44.766V13.792H48.518V14.296ZM51.2701 15.808C51.5687 15.8773 51.7981 15.9973 51.9581 16.168C52.1234 16.3387 52.2061 16.5467 52.2061 16.792C52.2061 17.0373 52.1207 17.256 51.9501 17.448C51.7847 17.64 51.5581 17.7893 51.2701 17.896C50.9821 17.9973 50.6647 18.048 50.3181 18.048C50.0141 18.048 49.7154 18.0053 49.4221 17.92C49.1287 17.8293 48.8727 17.6987 48.6541 17.528L48.8461 17.104C49.0381 17.248 49.2621 17.36 49.5181 17.44C49.7741 17.52 50.0327 17.56 50.2941 17.56C50.6834 17.56 51.0007 17.488 51.2461 17.344C51.4967 17.1947 51.6221 16.9947 51.6221 16.744C51.6221 16.52 51.5207 16.3467 51.3181 16.224C51.1154 16.096 50.8381 16.032 50.4861 16.032H49.7661V15.616H50.4541C50.7687 15.616 51.0221 15.5573 51.2141 15.44C51.4061 15.3173 51.5021 15.1547 51.5021 14.952C51.5021 14.728 51.3927 14.552 51.1741 14.424C50.9607 14.296 50.6807 14.232 50.3341 14.232C49.8807 14.232 49.4327 14.3467 48.9901 14.576L48.8301 14.136C49.3314 13.8747 49.8514 13.744 50.3901 13.744C50.7101 13.744 50.9981 13.792 51.2541 13.888C51.5154 13.9787 51.7181 14.1093 51.8621 14.28C52.0114 14.4507 52.0861 14.648 52.0861 14.872C52.0861 15.0853 52.0114 15.2747 51.8621 15.44C51.7181 15.6053 51.5207 15.728 51.2701 15.808ZM55.2635 15.28C55.7915 15.2853 56.1942 15.4027 56.4715 15.632C56.7488 15.8613 56.8875 16.192 56.8875 16.624C56.8875 17.072 56.7382 17.416 56.4395 17.656C56.1408 17.896 55.7142 18.0133 55.1595 18.008L53.4955 18V13.792H54.0635V15.264L55.2635 15.28ZM57.5915 13.792H58.1595V18H57.5915V13.792ZM55.1275 17.576C55.5168 17.5813 55.8102 17.504 56.0075 17.344C56.2102 17.1787 56.3115 16.9387 56.3115 16.624C56.3115 16.3147 56.2128 16.0853 56.0155 15.936C55.8182 15.7867 55.5222 15.7093 55.1275 15.704L54.0635 15.688V17.56L55.1275 17.576ZM62.4568 15.824C63.0274 15.9573 63.3128 16.3013 63.3128 16.856C63.3128 17.224 63.1768 17.5067 62.9048 17.704C62.6328 17.9013 62.2274 18 61.6888 18H59.7768V13.792H61.6328C62.1128 13.792 62.4888 13.8853 62.7608 14.072C63.0328 14.2587 63.1688 14.5253 63.1688 14.872C63.1688 15.1013 63.1048 15.2987 62.9768 15.464C62.8541 15.624 62.6808 15.744 62.4568 15.824ZM60.3288 15.664H61.5928C61.9181 15.664 62.1661 15.6027 62.3368 15.48C62.5128 15.3573 62.6008 15.1787 62.6008 14.944C62.6008 14.7093 62.5128 14.5333 62.3368 14.416C62.1661 14.2987 61.9181 14.24 61.5928 14.24H60.3288V15.664ZM61.6648 17.552C62.0274 17.552 62.2994 17.4933 62.4808 17.376C62.6621 17.2587 62.7528 17.0747 62.7528 16.824C62.7528 16.5733 62.6701 16.3893 62.5048 16.272C62.3394 16.1493 62.0781 16.088 61.7208 16.088H60.3288V17.552H61.6648ZM66.3799 18.04C65.9746 18.04 65.6093 17.9493 65.2839 17.768C64.9586 17.5813 64.7026 17.3253 64.5159 17C64.3293 16.6747 64.2359 16.3067 64.2359 15.896C64.2359 15.4853 64.3293 15.1173 64.5159 14.792C64.7026 14.4667 64.9586 14.2133 65.2839 14.032C65.6093 13.8507 65.9746 13.76 66.3799 13.76C66.7853 13.76 67.1506 13.8507 67.4759 14.032C67.8013 14.2133 68.0546 14.4667 68.2359 14.792C68.4226 15.1173 68.5159 15.4853 68.5159 15.896C68.5159 16.3067 68.4226 16.6747 68.2359 17C68.0546 17.3253 67.8013 17.5813 67.4759 17.768C67.1506 17.9493 66.7853 18.04 66.3799 18.04ZM66.3799 17.536C66.6786 17.536 66.9453 17.4693 67.1799 17.336C67.4199 17.1973 67.6066 17.0027 67.7399 16.752C67.8733 16.5013 67.9399 16.216 67.9399 15.896C67.9399 15.576 67.8733 15.2907 67.7399 15.04C67.6066 14.7893 67.4199 14.5973 67.1799 14.464C66.9453 14.3253 66.6786 14.256 66.3799 14.256C66.0813 14.256 65.8119 14.3253 65.5719 14.464C65.3373 14.5973 65.1506 14.7893 65.0119 15.04C64.8786 15.2907 64.8119 15.576 64.8119 15.896C64.8119 16.216 64.8786 16.5013 65.0119 16.752C65.1506 17.0027 65.3373 17.1973 65.5719 17.336C65.8119 17.4693 66.0813 17.536 66.3799 17.536ZM72.4099 15.824C72.9805 15.9573 73.2659 16.3013 73.2659 16.856C73.2659 17.224 73.1299 17.5067 72.8579 17.704C72.5859 17.9013 72.1805 18 71.6419 18H69.7299V13.792H71.5859C72.0659 13.792 72.4419 13.8853 72.7139 14.072C72.9859 14.2587 73.1219 14.5253 73.1219 14.872C73.1219 15.1013 73.0579 15.2987 72.9299 15.464C72.8072 15.624 72.6339 15.744 72.4099 15.824ZM70.2819 15.664H71.5459C71.8712 15.664 72.1192 15.6027 72.2899 15.48C72.4659 15.3573 72.5539 15.1787 72.5539 14.944C72.5539 14.7093 72.4659 14.5333 72.2899 14.416C72.1192 14.2987 71.8712 14.24 71.5459 14.24H70.2819V15.664ZM71.6179 17.552C71.9805 17.552 72.2525 17.4933 72.4339 17.376C72.6152 17.2587 72.7059 17.0747 72.7059 16.824C72.7059 16.5733 72.6232 16.3893 72.4579 16.272C72.2925 16.1493 72.0312 16.088 71.6739 16.088H70.2819V17.552H71.6179Z" fill="#919191"/>
</svg>
