<svg width="100" height="34" viewBox="0 0 100 34" fill="none" xmlns="http://www.w3.org/2000/svg">
  <path fill-rule="evenodd" clip-rule="evenodd" d="M0 0H38.1658V33.9478H0V0Z" fill="white"/>
  <path fill-rule="evenodd" clip-rule="evenodd" d="M3.66431 10.4399H10.5781C10.8444 10.4399 11.0618 10.6578 11.0618 10.9241V13.1369C11.0618 13.4032 10.8444 13.6206 10.5781 13.6206H9.14713V19.6359H10.5787C10.8444 19.6359 11.0624 19.8539 11.0629 20.1207V22.3335C11.0623 22.4617 11.0111 22.5845 10.9204 22.6751C10.8297 22.7657 10.7069 22.8167 10.5787 22.8172H3.66431C3.53613 22.8169 3.41329 22.7658 3.32265 22.6752C3.23202 22.5846 3.18096 22.4617 3.18066 22.3335V20.1207C3.18066 19.8539 3.39802 19.6359 3.66431 19.6359H5.1858V13.62H3.66488C3.53665 13.6197 3.41375 13.5686 3.32302 13.478C3.23229 13.3874 3.18111 13.2646 3.18066 13.1363V10.9235C3.18066 10.6572 3.39802 10.4399 3.66431 10.4399ZM29.4192 23.0237C25.8966 23.0237 23.0232 20.9042 23.0232 16.7671C23.0232 12.6299 25.8966 10.5099 29.4192 10.5099C32.9413 10.5099 35.8147 12.6299 35.8147 16.7671C35.8147 20.9042 32.9419 23.0237 29.4192 23.0237ZM31.2514 16.7671C31.2514 14.5036 30.8428 13.3446 29.4192 13.3446C27.995 13.3446 27.5865 14.5042 27.5865 16.7671C27.5865 19.03 27.995 20.1901 29.4192 20.1901C30.8428 20.1896 31.2514 19.0294 31.2514 16.7671ZM17.6809 15.142C16.5093 14.8126 15.3184 14.7363 15.3696 13.814C15.3884 13.4783 15.6496 13.1022 16.5452 13.0999C17.1045 13.0988 18.0422 13.2831 18.7688 13.7423C19.5182 14.2157 20.0581 14.9241 20.6038 14.9241H21.9415C22.337 14.9241 22.6328 14.3523 22.6328 13.9563V11.3964C22.6328 10.9412 22.3262 10.7944 21.9933 10.7983L20.684 10.8143C19.8209 10.8251 20.2112 11.5073 19.8328 11.6484C18.8496 12.0166 18.8542 10.5935 16.2328 10.5588C13.2752 10.5201 11.5289 12.2436 11.5727 14.2157C11.6274 16.6988 13.5033 17.6075 15.83 18.3665C16.9867 18.7443 18.8877 18.9367 18.8359 19.859C18.8172 20.1947 18.556 20.5714 17.6604 20.5736C17.1011 20.5736 16.1634 20.3904 15.4368 19.9313C14.6874 19.4578 14.1469 18.7489 13.6018 18.7489H12.2641C11.8681 18.7489 11.5727 19.3213 11.5727 19.7167V22.2772C11.5727 22.733 11.8794 22.8798 12.2123 22.8752L13.5215 22.8599C14.3847 22.8485 13.995 22.1663 14.3733 22.0251C15.3566 21.6576 15.3514 23.0801 17.9728 23.1142C20.931 23.1529 22.6767 21.4294 22.6334 19.4567C22.5782 16.9736 20.7153 15.9961 17.6809 15.142ZM27.4949 6.3528C27.1359 6.76873 26.6169 7.14996 25.9717 7.48225C26.4315 8.13117 26.8316 8.82038 27.1671 9.54144H26.5515C26.2399 8.90596 25.8754 8.29784 25.4619 7.72351C25.129 7.86746 24.7694 8.0006 24.3876 8.12009C23.9609 8.25381 23.5051 8.37215 23.0249 8.47173C23.1279 8.76305 23.2257 9.06576 23.3173 9.37927L23.364 9.54144H22.787L22.7848 9.53347C22.691 9.21136 22.5874 8.8922 22.4741 8.57643C21.4681 8.74717 20.4503 8.83868 19.43 8.85011V9.54144H18.8735V8.85011C17.8534 8.83897 16.8357 8.74746 15.83 8.57643C15.7158 8.89502 15.6115 9.21703 15.517 9.54201H14.94C14.9548 9.48738 14.9708 9.4339 14.9867 9.37984C15.0783 9.06633 15.1762 8.76305 15.2797 8.47173C14.7747 8.36795 14.2757 8.23651 13.785 8.07798C13.4656 7.975 13.1513 7.85671 12.8433 7.72351C12.4514 8.26762 12.1034 8.84202 11.8026 9.44129L11.7525 9.54144H11.1369C11.4729 8.82053 11.8732 8.13135 12.3329 7.48225C11.6883 7.14996 11.1693 6.7693 10.8103 6.3528C9.69599 7.25639 8.73392 8.33296 7.96078 9.54144H7.30587C9.73091 5.52662 14.1366 2.83301 19.1523 2.83301C24.168 2.83301 28.5737 5.52662 30.9987 9.54144H30.3444C29.5708 8.33335 28.6088 7.25685 27.4949 6.3528ZM15.5739 3.88223C15.8146 4.12121 16.1651 4.33515 16.5958 4.50926C17.2906 4.79034 18.1805 4.95934 19.1523 4.95934C20.0525 4.95934 20.8826 4.81481 21.5512 4.57014C22.053 4.38693 22.4599 4.1508 22.7307 3.88223C21.5916 3.56189 20.391 3.39005 19.1517 3.39005C17.9125 3.39005 16.7125 3.56189 15.5739 3.88223ZM15.4869 4.53259C15.3012 4.39851 15.1349 4.23961 14.9924 4.06032C13.648 4.50657 12.3838 5.16527 11.2479 6.0114C11.5739 6.38409 12.0581 6.7289 12.6681 7.03218C13.488 5.9858 14.4405 5.13402 15.4869 4.53259ZM17.0652 5.25066C16.8357 5.18875 16.6099 5.11332 16.3893 5.02477C16.2695 4.97639 16.1516 4.92344 16.0359 4.86602C14.981 5.4168 14.0177 6.23786 13.1904 7.26888C13.4316 7.36902 13.6877 7.46291 13.9574 7.55053C14.4268 7.70359 14.9366 7.83673 15.4777 7.94598C15.9273 6.81482 16.4655 5.89419 17.0652 5.25066ZM18.8735 5.51126C18.4831 5.49958 18.0941 5.46003 17.7093 5.39291C17.0795 5.9619 16.5088 6.87571 16.0325 8.04726C16.9162 8.19406 17.8732 8.28055 18.8735 8.2942V5.51126ZM20.5947 5.39291C20.2097 5.45978 19.8205 5.49933 19.43 5.51126V8.2942C20.382 8.28345 21.3319 8.2009 22.2715 8.04726C21.7953 6.87627 21.2246 5.9619 20.5947 5.39291ZM22.2681 4.86545C22.1037 4.94795 21.9267 5.02306 21.7401 5.09134C21.5808 5.14938 21.4135 5.20286 21.2394 5.25066C21.8391 5.89419 22.3774 6.81482 22.8269 7.94484C23.2979 7.85069 23.7638 7.73218 24.2226 7.58979C24.5246 7.49598 24.8223 7.38871 25.1148 7.26831C24.2869 6.23729 23.3236 5.41624 22.2681 4.86545ZM23.3122 4.06089C23.1697 4.24031 23.0031 4.39923 22.8172 4.53316C23.8636 5.13515 24.8166 5.98637 25.6354 7.03274C26.2454 6.73004 26.7296 6.38523 27.0562 6.01254C25.9206 5.16602 24.6565 4.5071 23.3122 4.06089ZM27.4949 26.7643C27.1359 26.3478 26.6169 25.9666 25.9717 25.6343C26.4315 24.9858 26.8316 24.2969 27.1671 23.5762H26.5515C26.2399 24.2119 25.8754 24.8202 25.4619 25.3947C25.1109 25.2439 24.7524 25.1115 24.3876 24.9981C23.9393 24.8588 23.4845 24.7413 23.0249 24.6459C23.1279 24.3546 23.2257 24.0525 23.3173 23.739L23.364 23.5768H22.787L22.7848 23.5848C22.6909 23.9068 22.5873 24.226 22.4741 24.5418C21.4682 24.3707 20.4503 24.2794 19.43 24.2687V23.5774H18.8735V24.2687C17.8534 24.2794 16.8357 24.3707 15.83 24.5418C15.7156 24.2235 15.6112 23.9017 15.517 23.5768H14.94C14.9548 23.6314 14.9708 23.6843 14.9867 23.739C15.0783 24.0525 15.1762 24.3557 15.2797 24.6471C14.7494 24.7569 14.2487 24.8895 13.785 25.0402C13.4521 25.1478 13.1375 25.2667 12.8433 25.3947C12.4516 24.8503 12.1036 24.2757 11.8026 23.6764L11.7525 23.5762H11.1369C11.4729 24.2968 11.8732 24.9856 12.3329 25.6343C11.6883 25.9666 11.1693 26.3478 10.8103 26.7643C9.69572 25.861 8.73361 24.7844 7.96078 23.5757H7.30587C9.73091 27.5899 14.1366 30.2835 19.1523 30.2835C24.168 30.2835 28.5737 27.5899 30.9987 23.5757H30.3444C29.5711 24.784 28.609 25.8605 27.4949 26.7643ZM15.5739 29.2349C15.8146 28.9959 16.1651 28.7825 16.5958 28.6078C17.2906 28.3267 18.1805 28.1589 19.1523 28.1589C20.0525 28.1589 20.8826 28.3034 21.5512 28.5469C22.053 28.7302 22.4599 28.9669 22.7307 29.2349C21.5916 29.5558 20.391 29.727 19.1517 29.727C17.9125 29.727 16.7125 29.5546 15.5739 29.2349ZM15.4869 28.5845C15.3011 28.7184 15.1347 28.8773 14.9924 29.0568C13.6479 28.6106 12.3837 27.9516 11.2479 27.1051C11.5739 26.733 12.0581 26.3882 12.6681 26.0849C13.488 27.1319 14.4405 27.9836 15.4869 28.5845ZM17.0652 27.8664C16.8357 27.9282 16.61 28.0034 16.3893 28.0918C16.2697 28.1406 16.1519 28.1936 16.0359 28.2505C14.981 27.7003 14.0177 26.8792 13.1904 25.8476C13.4316 25.7475 13.6877 25.6542 13.9574 25.5666C14.4268 25.4129 14.9366 25.2798 15.4777 25.1711C15.9273 26.3028 16.4655 27.2235 17.0652 27.8664ZM18.8735 27.6053C18.4689 27.6183 18.078 27.6599 17.7093 27.7242C17.0795 27.1552 16.5088 26.242 16.0325 25.0693C16.9721 24.917 17.9217 24.8345 18.8735 24.8223V27.6053ZM20.5947 27.7242C20.2097 27.6574 19.8205 27.6177 19.43 27.6053V24.8223C20.4308 24.8365 21.3873 24.9225 22.2715 25.0693C21.7953 26.2408 21.2246 27.1552 20.5947 27.7242ZM22.2681 28.2511C22.0964 28.1662 21.9201 28.091 21.7401 28.0258C21.5808 27.9677 21.4135 27.9148 21.2394 27.867C21.8391 27.2235 22.3774 26.3034 22.8269 25.1723C23.3207 25.2724 23.7873 25.3913 24.2226 25.5279C24.5384 25.6269 24.8365 25.7344 25.1148 25.8488C24.2869 26.8798 23.3236 27.7009 22.2681 28.2511ZM23.3122 29.0568C23.17 28.8771 23.0034 28.7181 22.8172 28.5845C23.8636 27.9831 24.8166 27.1307 25.6354 26.0849C26.2454 26.3882 26.7296 26.733 27.0562 27.1051C25.9203 27.9512 24.6563 28.6101 23.3122 29.0568Z" fill="#333333"/>
  <path fill-rule="evenodd" clip-rule="evenodd" d="M47.3749 10.1831H46.6165V4.94497H47.3749V10.1831ZM48.9653 10.1831H48.2529V6.22577H48.9368V6.67642C49.0853 6.49832 49.2486 6.36802 49.4279 6.28552C49.6206 6.19994 49.8298 6.1576 50.0407 6.16148C50.559 6.16148 50.9568 6.31397 51.2339 6.61838C51.511 6.92279 51.6492 7.35978 51.6492 7.9282V10.1826H50.934V8.08297C50.934 7.66305 50.856 7.35124 50.7007 7.14868C50.5442 6.94612 50.3024 6.84484 49.9758 6.84484C49.6208 6.84484 49.3641 6.96433 49.2048 7.20274C49.0449 7.44171 48.9658 7.83489 48.9658 8.3851V10.1831H48.9653ZM52.7229 10.1831V6.87272H52.163V6.22577H52.7229V4.94497H53.4319V6.22577H53.9929V6.87272H53.4319V10.1831H52.7229ZM57.5861 7.82749C57.4973 7.50146 57.3437 7.24826 57.1246 7.07016C56.9067 6.89093 56.6467 6.80103 56.3423 6.80103C56.0299 6.80103 55.7602 6.89321 55.5298 7.07585C55.3022 7.26021 55.1428 7.51056 55.0575 7.82692H57.5861V7.82749ZM55.0359 8.46761C55.0956 8.79763 55.2458 9.06676 55.4837 9.27159C55.7226 9.47643 56.006 9.57885 56.3349 9.57885C56.5693 9.57885 56.7827 9.52195 56.9773 9.40929C57.1696 9.29777 57.3227 9.13788 57.4387 8.9319H58.241C58.0589 9.3706 57.8029 9.70631 57.4763 9.93902C57.1485 10.1712 56.7685 10.2872 56.3349 10.2872C56.0594 10.2907 55.7861 10.2383 55.5315 10.133C55.283 10.0248 55.0591 9.86703 54.8737 9.66932C54.4995 9.27189 54.2891 8.74777 54.2848 8.20189C54.2848 7.92308 54.3326 7.66305 54.427 7.42123C54.5215 7.17941 54.6615 6.95864 54.8458 6.75949C55.0416 6.54327 55.2635 6.38111 55.5104 6.27186C55.7585 6.16262 56.0282 6.10856 56.3207 6.10856C56.6672 6.10856 56.9909 6.18993 57.2897 6.35152C57.5884 6.51369 57.8342 6.73958 58.0299 7.02919C58.1431 7.20957 58.2302 7.40587 58.2843 7.62095C58.34 7.83603 58.3668 8.08183 58.3668 8.35609V8.46818H55.0359V8.46761ZM59.7056 10.1831H58.9932V6.22577H59.6624V6.68268C59.7801 6.508 59.9156 6.37827 60.068 6.29349C60.2205 6.20871 60.3969 6.16432 60.5983 6.16205V6.90629C60.2791 6.93076 60.0504 7.02407 59.9127 7.18851C59.775 7.35295 59.7062 7.61696 59.7062 7.98169V10.1831H59.7056ZM61.8268 10.1831H61.1144V6.22577H61.7989V6.67642C61.9469 6.49832 62.1102 6.36802 62.29 6.28552C62.4825 6.19986 62.6915 6.15751 62.9022 6.16148C63.42 6.16148 63.8177 6.31397 64.096 6.61838C64.3713 6.92279 64.5107 7.35978 64.5107 7.9282V10.1826H63.795V8.08297C63.795 7.66305 63.717 7.35124 63.5617 7.14868C63.4063 6.94612 63.1639 6.84484 62.8373 6.84484C62.4829 6.84484 62.2262 6.96433 62.0664 7.20274C61.9076 7.44171 61.8274 7.83489 61.8274 8.3851V10.1831H61.8268ZM65.8809 8.17913C65.8809 8.57913 66.014 8.91427 66.2786 9.18625C66.5432 9.45823 66.8664 9.59251 67.251 9.59251C67.6009 9.59251 67.9099 9.45595 68.1768 9.18454C68.4436 8.91199 68.5779 8.59393 68.5779 8.2292C68.5779 7.84115 68.4448 7.50828 68.1813 7.23118C67.9156 6.95465 67.6009 6.81639 67.2368 6.81639C66.8624 6.81639 66.5432 6.94726 66.2786 7.21127C66.014 7.47529 65.8809 7.79847 65.8809 8.17913ZM68.5415 10.1831V9.69663C68.3699 9.87923 68.1632 10.0253 67.9338 10.1262C67.7085 10.223 67.4695 10.2725 67.2146 10.2725C66.62 10.2725 66.1267 10.0733 65.7329 9.67729C65.3398 9.2807 65.1429 8.7834 65.1429 8.18652C65.1429 7.90772 65.1918 7.64371 65.2908 7.39449C65.3887 7.14527 65.5287 6.92507 65.7119 6.73616C65.911 6.52734 66.1273 6.37371 66.3634 6.27414C66.6204 6.17078 66.8955 6.1199 67.1725 6.12449C67.4439 6.12449 67.6926 6.17229 67.919 6.26788C68.1478 6.36347 68.356 6.5097 68.5415 6.70373V6.22521H69.2618V10.1826H68.5415V10.1831ZM70.3293 10.1831V6.87272H69.7682V6.22577H70.3293V4.94497H71.0382V6.22577H71.5993V6.87272H71.0382V10.1831H70.3293ZM72.8186 5.76147H72.1131V4.94497H72.8186V5.76147ZM72.1131 10.1831V6.22577H72.8186V10.1831H72.1131ZM74.1757 8.20075C74.1757 8.5962 74.3003 8.92622 74.5512 9.19023C74.801 9.45424 75.1134 9.58568 75.4878 9.58568C75.8548 9.58568 76.1615 9.4531 76.409 9.18795C76.6582 8.9228 76.7811 8.59108 76.7811 8.19335C76.7811 7.79278 76.6576 7.46163 76.409 7.19989C76.1609 6.93872 75.8519 6.80842 75.4798 6.80842C75.11 6.80842 74.801 6.941 74.5506 7.20615C74.3003 7.47187 74.1757 7.80302 74.1757 8.20075ZM73.4377 8.20872C73.4377 7.92763 73.4855 7.6659 73.5799 7.42294C73.6749 7.17887 73.8168 6.95578 73.9976 6.76632C74.1967 6.55294 74.422 6.38794 74.6713 6.27414C74.9143 6.15992 75.1794 6.10067 75.4479 6.1006C75.7358 6.1006 76.0027 6.15238 76.2468 6.25536C76.4949 6.35835 76.7168 6.51084 76.9159 6.71227C77.1094 6.91141 77.2596 7.13616 77.3637 7.38538C77.4684 7.6346 77.5191 7.89236 77.5191 8.15921C77.5191 8.42949 77.4701 8.69293 77.3734 8.95012C77.2755 9.20673 77.1401 9.43148 76.9654 9.62266C76.764 9.844 76.5376 10.0107 76.2878 10.1251C76.038 10.2395 75.77 10.2958 75.4878 10.2958C75.1976 10.2958 74.9302 10.2446 74.6855 10.1399C74.4366 10.0322 74.2124 9.87481 74.0266 9.67729C73.8406 9.48076 73.6935 9.25083 73.593 8.99962C73.4907 8.74846 73.438 8.4799 73.4377 8.20872ZM78.8443 10.1831H78.1319V6.22577H78.8164V6.67642C78.9655 6.49832 79.1276 6.36802 79.3074 6.28552C79.5 6.19998 79.709 6.15764 79.9197 6.16148C80.4374 6.16148 80.8352 6.31397 81.1134 6.61838C81.3899 6.92279 81.5288 7.35978 81.5288 7.9282V10.1826H80.8118V8.08297C80.8118 7.66305 80.735 7.35124 80.5797 7.14868C80.4232 6.94612 80.182 6.84484 79.8554 6.84484C79.4997 6.84484 79.2443 6.96433 79.0844 7.20274C78.9245 7.44171 78.8443 7.83489 78.8443 8.3851V10.1831ZM82.8995 8.17913C82.8995 8.57913 83.0315 8.91427 83.2972 9.18625C83.422 9.31803 83.573 9.42225 83.7404 9.49222C83.9079 9.56219 84.0882 9.59635 84.2696 9.59251C84.6195 9.59251 84.9274 9.45595 85.1954 9.18454C85.4611 8.91199 85.5954 8.59393 85.5954 8.2292C85.5985 8.04489 85.5651 7.86178 85.497 7.69047C85.429 7.51916 85.3276 7.36305 85.1988 7.23118C84.9331 6.95465 84.6195 6.81639 84.2542 6.81639C83.8798 6.81639 83.5606 6.94726 83.2972 7.21127C83.1682 7.33677 83.0663 7.48743 82.9979 7.65391C82.9295 7.8204 82.896 7.99917 82.8995 8.17913ZM85.5601 10.1831V9.69663C85.378 9.88611 85.1743 10.0295 84.9513 10.1262C84.7245 10.2237 84.48 10.2735 84.2332 10.2725C83.6386 10.2725 83.1453 10.0733 82.751 9.67729C82.3578 9.2807 82.1621 8.7834 82.1621 8.18652C82.1621 7.90772 82.211 7.64371 82.3089 7.39449C82.4079 7.14527 82.5467 6.92507 82.7299 6.73616C82.9291 6.52734 83.1464 6.37371 83.382 6.27414C83.6386 6.17068 83.9133 6.11979 84.1899 6.12449C84.4614 6.12449 84.71 6.17229 84.9376 6.26788C85.1652 6.36347 85.3735 6.5097 85.5601 6.70373V6.22521H86.2793V10.1826H85.5601V10.1831ZM87.1072 10.1831V4.94497H87.8116V10.1831H87.1072ZM47.1712 16.8938C47.1712 17.1669 47.2168 17.4264 47.3072 17.6694C47.3983 17.9118 47.5297 18.1229 47.6998 18.2992C47.8791 18.4881 48.0868 18.6327 48.3212 18.7362C48.5562 18.8398 48.7963 18.8904 49.041 18.8904C49.5826 18.8904 50.0356 18.697 50.4003 18.3135C50.765 17.9277 50.9471 17.4497 50.9471 16.879C50.9471 16.6372 50.9027 16.4051 50.8162 16.1866C50.7262 15.963 50.5962 15.7577 50.4327 15.5806C50.2537 15.3816 50.0363 15.2208 49.7937 15.1078C49.5567 15.0034 49.3 14.951 49.041 14.9541C48.794 14.9541 48.5585 15.0008 48.336 15.0941C48.1124 15.1874 47.9149 15.3234 47.7431 15.5004C47.5627 15.6863 47.4197 15.9051 47.322 16.145C47.2219 16.3897 47.1712 16.6389 47.1712 16.8938ZM46.3792 16.8876C46.3792 16.52 46.4492 16.1729 46.5875 15.844C46.7299 15.5099 46.9378 15.2076 47.1991 14.9553C47.442 14.7132 47.7298 14.5209 48.0464 14.3891C48.3642 14.2588 48.7049 14.1933 49.0484 14.1962C49.4142 14.1962 49.7539 14.26 50.0674 14.3891C50.3881 14.5224 50.6796 14.7173 50.9255 14.9627C51.1923 15.2244 51.392 15.5163 51.5257 15.8406C51.66 16.165 51.7277 16.5137 51.7277 16.8881C51.7277 17.258 51.6697 17.6017 51.5542 17.914C51.4395 18.2269 51.2639 18.5139 51.0376 18.7584C50.765 19.052 50.4629 19.2705 50.1283 19.4196C49.7856 19.5703 49.4148 19.6465 49.0404 19.6432C48.6657 19.6466 48.2947 19.5693 47.9525 19.4167C47.6097 19.2588 47.3048 19.0291 47.0586 18.7431C46.8359 18.4979 46.6634 18.2114 46.551 17.8998C46.4354 17.5749 46.3772 17.2324 46.3792 16.8876ZM53.0996 19.5379H52.3872V15.5806H53.0563V16.0375C53.1741 15.8628 53.3095 15.7331 53.462 15.6483C53.6145 15.5635 53.7909 15.5191 53.9923 15.5169V16.2611C53.6731 16.2856 53.4444 16.3789 53.3067 16.5433C53.1679 16.7078 53.1002 16.9718 53.1002 17.3365V19.5379H53.0996ZM54.5665 19.8543H55.3255C55.4353 20.0387 55.5787 20.1798 55.7591 20.2765C55.9366 20.3732 56.1426 20.4233 56.3713 20.4233C56.7724 20.4233 57.0945 20.3021 57.3392 20.0608C57.585 19.8196 57.7062 19.4998 57.7062 19.1015V19.0515C57.534 19.2337 57.3269 19.3796 57.0973 19.4805C56.8708 19.5788 56.6262 19.6288 56.3793 19.6273C55.7847 19.6273 55.2913 19.4281 54.897 19.0315C54.505 18.6349 54.3081 18.1371 54.3081 17.5413C54.3081 17.2625 54.3571 16.998 54.4549 16.7487C54.5539 16.4995 54.6939 16.2799 54.876 16.0904C55.0751 15.8816 55.2925 15.728 55.5281 15.6284C55.7846 15.5249 56.0594 15.474 56.336 15.4787C56.6052 15.4787 56.8527 15.5265 57.0825 15.6221C57.3101 15.7177 57.5212 15.864 57.7136 16.058V15.5795H58.4259V18.8808C58.4259 19.5698 58.2473 20.1086 57.8905 20.499C57.5326 20.8893 57.0404 21.0833 56.4157 21.0833C55.9622 21.0833 55.5741 20.9764 55.2532 20.7624C54.9323 20.5479 54.7036 20.2458 54.5665 19.8543ZM55.0455 17.5339C55.0455 17.9339 55.1775 18.2697 55.4433 18.5411C55.568 18.6729 55.719 18.7772 55.8865 18.8473C56.0539 18.9174 56.2342 18.9516 56.4157 18.9479C56.7656 18.9479 57.0734 18.8113 57.3414 18.5399C57.6094 18.2674 57.7414 17.9487 57.7414 17.584C57.7414 17.196 57.6106 16.8637 57.3448 16.586C57.0803 16.31 56.7656 16.1712 56.4015 16.1712C56.0282 16.1712 55.7067 16.3021 55.4433 16.5661C55.3143 16.6917 55.2125 16.8423 55.1441 17.0088C55.0757 17.1753 55.0422 17.354 55.0455 17.5339ZM59.7898 17.5339C59.7898 17.9339 59.923 18.2697 60.1875 18.5411C60.4521 18.8125 60.7753 18.9479 61.1599 18.9479C61.5099 18.9479 61.8177 18.8113 62.0857 18.5399C62.3526 18.2674 62.4857 17.9487 62.4857 17.584C62.4857 17.196 62.3537 16.8637 62.0902 16.586C61.8245 16.31 61.5099 16.1712 61.1457 16.1712C60.7713 16.1712 60.4521 16.3021 60.1875 16.5661C60.0587 16.6917 59.9569 16.8424 59.8885 17.0089C59.8201 17.1753 59.7865 17.354 59.7898 17.5339ZM62.4504 19.5379V19.052C62.2782 19.2343 62.0712 19.3802 61.8416 19.481C61.6151 19.5794 61.3705 19.6294 61.1235 19.6278C60.5289 19.6278 60.0356 19.4287 59.6413 19.0321C59.2493 18.6355 59.0524 18.1376 59.0524 17.5419C59.0524 17.2631 59.1013 16.9985 59.2003 16.7493C59.2982 16.5001 59.4382 16.2805 59.6214 16.091C59.8205 15.8822 60.0368 15.7285 60.2729 15.629C60.5295 15.5256 60.8042 15.4747 61.0809 15.4793C61.3534 15.4793 61.6021 15.5271 61.8285 15.6227C62.0572 15.7183 62.2644 15.8645 62.451 16.0585V15.58H63.1713V19.5374H62.4504V19.5379ZM64.7093 19.5379H63.9969V15.5806H64.6814V16.0312C64.8305 15.8537 64.9927 15.7228 65.1725 15.6409C65.365 15.5552 65.574 15.5129 65.7847 15.5169C66.3025 15.5169 66.7002 15.6694 66.9785 15.9738C67.255 16.2782 67.3938 16.7152 67.3938 17.2842V19.5379H66.6769V17.4389C66.6769 17.019 66.6001 16.7066 66.4436 16.5041C66.2883 16.3015 66.0459 16.2008 65.7193 16.2008C65.3648 16.2008 65.1082 16.3197 64.9489 16.5581C64.789 16.7977 64.7088 17.1908 64.7088 17.7411V19.5379H64.7093ZM68.9324 15.1163H68.228V14.2998H68.9324V15.1163ZM68.228 19.5379V15.5806H68.9324V19.5379H68.228ZM72.1677 19.5379H69.4337V18.9621L71.3438 16.2275H69.6635V15.5806H72.0596V16.3112L70.2747 18.8688H72.1671V19.5379H72.1677ZM73.2869 17.5339C73.2869 17.9339 73.4189 18.2697 73.6846 18.5411C73.8094 18.6729 73.9604 18.7772 74.1278 18.8473C74.2953 18.9174 74.4755 18.9516 74.657 18.9479C75.007 18.9479 75.3148 18.8113 75.5828 18.5399C75.8496 18.2674 75.9828 17.9487 75.9828 17.584C75.9828 17.196 75.8508 16.8637 75.5862 16.586C75.3205 16.31 75.007 16.1712 74.6428 16.1712C74.2684 16.1712 73.9481 16.3021 73.6846 16.5661C73.5556 16.6916 73.4537 16.8422 73.3853 17.0087C73.3169 17.1752 73.2834 17.354 73.2869 17.5339ZM75.9469 19.5379V19.052C75.7649 19.2409 75.5612 19.3843 75.3381 19.481C75.1115 19.5793 74.867 19.6293 74.62 19.6278C74.0255 19.6278 73.5321 19.4287 73.1378 19.0321C72.7458 18.6355 72.5489 18.1376 72.5489 17.5419C72.5489 17.2631 72.5979 16.9985 72.6957 16.7493C72.7947 16.5001 72.9347 16.2805 73.1168 16.091C73.3159 15.8822 73.5333 15.7285 73.7688 15.629C74.0254 15.5255 74.3002 15.4746 74.5768 15.4793C74.8482 15.4793 75.0969 15.5271 75.3245 15.6227C75.5521 15.7183 75.7603 15.8645 75.9469 16.0585V15.58H76.6662V19.5374H75.9469V19.5379ZM77.7353 19.5379V16.2281H77.1743V15.5812H77.7353V14.3004H78.4431V15.5812H79.0041V16.2281H78.4431V19.5379H77.7353ZM80.2235 15.1163H79.5191V14.2998H80.2235V15.1163ZM79.5191 19.5379V15.5806H80.2235V19.5379H79.5191ZM81.5805 17.5561C81.5805 17.9516 81.7063 18.2816 81.9561 18.545C82.207 18.8096 82.5182 18.9405 82.8926 18.9405C83.2602 18.9405 83.5675 18.8085 83.815 18.5428C84.0631 18.2782 84.1871 17.9459 84.1871 17.5482C84.1871 17.1482 84.0625 16.817 83.815 16.5547C83.5669 16.2935 83.2574 16.1632 82.8858 16.1632C82.516 16.1632 82.207 16.2958 81.9555 16.561C81.7063 16.8267 81.5805 17.1584 81.5805 17.5561ZM80.8426 17.5641C80.8426 17.283 80.8904 17.0207 80.9848 16.7772C81.0793 16.5331 81.2192 16.3146 81.4036 16.1206C81.6027 15.9072 81.8269 15.7422 82.0761 15.6284C82.3196 15.5144 82.5851 15.4553 82.854 15.4554C83.1407 15.4554 83.4076 15.5066 83.6528 15.6102C83.9038 15.7163 84.131 15.8716 84.3208 16.0671C84.5154 16.2657 84.6645 16.4904 84.7686 16.7402C84.8733 16.9894 84.9251 17.2466 84.9251 17.5135C84.9251 17.7837 84.8762 18.0477 84.7783 18.3049C84.6816 18.5616 84.545 18.7863 84.3703 18.9775C84.1689 19.1988 83.9436 19.3655 83.6926 19.4799C83.4429 19.5943 83.1749 19.6512 82.8926 19.6512C82.6177 19.6541 82.3451 19.6008 82.0915 19.4947C81.8426 19.3873 81.6184 19.2301 81.4326 19.0327C81.0568 18.6357 80.8458 18.1108 80.8426 17.5641ZM86.2503 19.5379H85.5379V15.5806H86.2213V16.0312C86.3703 15.8537 86.5336 15.7228 86.7123 15.6409C86.891 15.559 87.0958 15.5169 87.3257 15.5169C87.8435 15.5169 88.2412 15.6694 88.5194 15.9738C88.7948 16.2782 88.9342 16.7152 88.9342 17.2842V19.5379H88.2184V17.4389C88.2184 17.019 88.1405 16.7066 87.9851 16.5041C87.8298 16.3015 87.5874 16.2008 87.2608 16.2008C86.9063 16.2008 86.6497 16.3197 86.4898 16.5581C86.3311 16.7977 86.2508 17.1908 86.2508 17.7411V19.5379H86.2503ZM92.7823 19.5379H92.0734V16.1997H91.6022V15.5812H92.0512V15.4622C92.0512 15.0583 92.1644 14.7527 92.3903 14.5473C92.6156 14.3425 92.9524 14.24 93.4014 14.24V14.8984H93.3394C93.1283 14.8984 92.9781 14.9462 92.887 15.0418C92.796 15.1373 92.7505 15.2984 92.7505 15.5231V15.5812H93.402V16.1997H92.7829V19.5379H92.7823ZM94.4296 17.5561C94.4296 17.9516 94.5553 18.2816 94.8051 18.545C95.056 18.8096 95.3684 18.9405 95.7428 18.9405C95.9159 18.9442 96.0878 18.9106 96.2467 18.842C96.4057 18.7733 96.548 18.6713 96.664 18.5428C96.9132 18.2782 97.0361 17.9459 97.0361 17.5482C97.0361 17.1482 96.9126 16.817 96.664 16.5547C96.4159 16.2935 96.1069 16.1632 95.7348 16.1632C95.365 16.1632 95.056 16.2958 94.8045 16.561C94.5553 16.8267 94.4296 17.1584 94.4296 17.5561ZM93.6916 17.5641C93.6916 17.283 93.7405 17.0207 93.835 16.7772C93.9299 16.5331 94.0718 16.31 94.2526 16.1206C94.4517 15.9072 94.6771 15.7422 94.9263 15.6284C95.1693 15.5144 95.4345 15.4553 95.703 15.4554C95.9909 15.4554 96.2577 15.5066 96.503 15.6102C96.7499 15.7132 96.9707 15.8657 97.171 16.0671C97.3644 16.2657 97.5146 16.4904 97.6188 16.7402C97.7235 16.9894 97.7741 17.2466 97.7741 17.5135C97.7741 17.7837 97.7252 18.0477 97.6284 18.3049C97.5306 18.5616 97.3951 18.7863 97.2205 18.9775C97.0311 19.1893 96.8005 19.3603 96.5428 19.4799C96.2919 19.5943 96.025 19.6512 95.7428 19.6512C95.4526 19.6512 95.1852 19.5988 94.9405 19.4947C94.6916 19.3873 94.4674 19.2301 94.2816 19.0327C94.0973 18.8381 93.9527 18.6128 93.848 18.355C93.7433 18.0973 93.6916 17.8321 93.6916 17.5641ZM99.1073 19.5379H98.3949V15.5806H99.064V16.0375C99.1818 15.8628 99.3172 15.7331 99.4697 15.6483C99.6222 15.5635 99.7986 15.5191 100 15.5169V16.2611C99.6808 16.2856 99.4532 16.3789 99.3155 16.5433C99.1767 16.7078 99.1078 16.9718 99.1078 17.3365V19.5379H99.1073ZM46.3399 27.3827H47.0205C47.0324 27.6541 47.1126 27.8703 47.2606 28.0319C47.4091 28.1929 47.6037 28.2743 47.8404 28.2743C48.1015 28.2743 48.3104 28.1929 48.468 28.0319C48.625 27.8697 48.7041 27.6529 48.7041 27.3815C48.7041 27.1448 48.6461 26.9605 48.5306 26.8313C48.4168 26.701 48.1749 26.5815 47.8074 26.4677C47.7748 26.4596 47.7424 26.4511 47.7101 26.4421C47.2714 26.3255 46.9539 26.132 46.7576 25.864C46.6708 25.7502 46.6031 25.6229 46.5573 25.4873C46.5127 25.3499 46.4904 25.2062 46.4913 25.0617C46.4913 24.6128 46.6239 24.2503 46.8902 23.9727C47.157 23.6973 47.5052 23.5579 47.9377 23.5579C48.3382 23.5579 48.6609 23.6813 48.9061 23.9289C49.1536 24.1769 49.2896 24.5178 49.3152 24.9502H48.6068C48.5943 24.7414 48.5243 24.5724 48.3963 24.4432C48.333 24.3797 48.2573 24.3298 48.1739 24.2967C48.0905 24.2636 48.0012 24.248 47.9115 24.2509C47.7027 24.2509 47.5331 24.322 47.4034 24.4643C47.272 24.6077 47.2065 24.792 47.2065 25.0168C47.2065 25.097 47.219 25.1704 47.2424 25.2404C47.2663 25.3104 47.3038 25.3747 47.3539 25.435C47.4569 25.5573 47.6776 25.6626 48.0156 25.7519C48.1715 25.7917 48.2916 25.8276 48.3752 25.8566C48.7212 25.9858 48.9829 26.1747 49.1622 26.4211C49.3402 26.668 49.4301 26.9644 49.4301 27.3098C49.4301 27.8157 49.2868 28.2231 48.9977 28.5332C48.7104 28.8421 48.3286 28.9963 47.8546 28.9963C47.4074 28.9963 47.0455 28.8472 46.7656 28.5519C46.4873 28.2572 46.3451 27.8669 46.3399 27.3827ZM50.3218 28.8928V25.5835H49.7613V24.9354H50.3218V23.6552H51.0307V24.9354H51.5918V25.5835H51.0307V28.8928H50.3218ZM52.6415 26.8893C52.6415 27.2893 52.7747 27.625 53.0404 27.8965C53.1652 28.0283 53.3161 28.1326 53.4836 28.2027C53.6511 28.2728 53.8313 28.307 54.0128 28.3033C54.3616 28.3033 54.6706 28.1667 54.9386 27.8953C55.2043 27.6222 55.3386 27.3053 55.3386 26.9394C55.3386 26.5514 55.2066 26.2191 54.942 25.9414C54.6763 25.6649 54.3616 25.5266 53.9975 25.5266C53.6231 25.5266 53.3039 25.6575 53.0404 25.922C52.9112 26.0474 52.8092 26.1979 52.7406 26.3643C52.672 26.5307 52.6383 26.7094 52.6415 26.8893ZM55.3033 28.8928V28.4068C55.1212 28.5957 54.9175 28.7391 54.6945 28.8359C54.4675 28.9342 54.2226 28.9842 53.9753 28.9827C53.3818 28.9827 52.8885 28.7835 52.4936 28.3869C52.1004 27.9903 51.9036 27.4936 51.9036 26.8967C51.9036 26.6179 51.9536 26.3533 52.0515 26.1041C52.1494 25.8549 52.2893 25.6353 52.4726 25.4464C52.6717 25.2375 52.8891 25.0839 53.1246 24.9843C53.3813 24.8813 53.656 24.8307 53.9326 24.8353C54.204 24.8353 54.4527 24.8831 54.6802 24.9787C54.9078 25.0742 55.1161 25.221 55.3027 25.4145V24.9354H56.0219V28.8928H55.3033ZM57.5628 28.8928H56.8504V24.9354H57.5338V25.3866C57.6828 25.2091 57.8461 25.0777 58.0248 24.9952C58.2035 24.9127 58.4083 24.8717 58.6382 24.8717C59.1559 24.8717 59.5537 25.0242 59.8308 25.3286C60.1079 25.633 60.2461 26.07 60.2461 26.639V28.8928H59.5303V26.7937C59.5303 26.3738 59.4524 26.0614 59.2971 25.8589C59.1417 25.6563 58.8993 25.5556 58.5727 25.5556C58.2183 25.5556 57.9616 25.6757 57.8017 25.9135C57.6419 26.1525 57.5628 26.5457 57.5628 27.0959V28.8928ZM61.6168 26.8893C61.6168 27.2893 61.7489 27.625 62.0146 27.8965C62.1393 28.0283 62.2903 28.1326 62.4578 28.2027C62.6252 28.2728 62.8055 28.307 62.987 28.3033C63.3369 28.3033 63.6447 28.1667 63.9127 27.8953C64.1807 27.6222 64.3127 27.3053 64.3127 26.9394C64.3127 26.5514 64.1819 26.2191 63.9161 25.9414C63.6516 25.6649 63.3369 25.5266 62.9728 25.5266C62.5995 25.5266 62.278 25.6575 62.0146 25.922C61.8854 26.0473 61.7835 26.1979 61.7151 26.3643C61.6466 26.5307 61.6132 26.7094 61.6168 26.8893ZM64.2775 28.8928V28.4068C64.1053 28.5891 63.8982 28.735 63.6686 28.8359C63.4421 28.9342 63.1975 28.9842 62.9506 28.9827C62.356 28.9827 61.8626 28.7835 61.4683 28.3869C61.0763 27.9903 60.8794 27.4936 60.8794 26.8967C60.8794 26.6179 60.9284 26.3533 61.0274 26.1041C61.1252 25.8549 61.2652 25.6353 61.4473 25.4464C61.6464 25.2375 61.8638 25.0839 62.0994 24.9843C62.3561 24.8813 62.6308 24.8307 62.9073 24.8353C63.1765 24.8353 63.424 24.8831 63.6538 24.9787C63.8826 25.0742 64.0937 25.221 64.2849 25.4145V23.6552H64.9972V28.8928H64.2775ZM66.3611 26.8893C66.3611 27.2893 66.4943 27.625 66.7588 27.8965C67.0234 28.1679 67.3466 28.3033 67.7312 28.3033C68.0812 28.3033 68.389 28.1667 68.657 27.8953C68.9239 27.6222 69.057 27.3053 69.057 26.9394C69.057 26.5514 68.925 26.2191 68.6604 25.9414C68.3958 25.6649 68.0812 25.5266 67.717 25.5266C67.3426 25.5266 67.0234 25.6575 66.7588 25.922C66.6299 26.0475 66.5281 26.1981 66.4597 26.3645C66.3913 26.5308 66.3578 26.7095 66.3611 26.8893ZM69.0229 28.8928V28.4068C68.8408 28.5957 68.6359 28.7391 68.4129 28.8359C68.1864 28.9342 67.9418 28.9842 67.6948 28.9827C67.1002 28.9827 66.6069 28.7835 66.2126 28.3869C65.8206 27.9903 65.6237 27.4936 65.6237 26.8967C65.6237 26.6179 65.6726 26.3533 65.7716 26.1041C65.8695 25.8549 66.0095 25.6353 66.1927 25.4464C66.3918 25.2375 66.6081 25.0839 66.8442 24.9843C67.1009 24.8814 67.3756 24.8308 67.6522 24.8353C67.9236 24.8353 68.1734 24.8831 68.3998 24.9787C68.6286 25.0742 68.8357 25.221 69.0234 25.4145V24.9354H69.7426V28.8928H69.0229ZM71.2886 28.8928H70.5762V24.9354H71.2453V25.3923C71.3631 25.2176 71.4986 25.0879 71.651 25.0031C71.8035 24.9183 71.9799 24.874 72.1813 24.8723V25.6159C71.8621 25.6404 71.6334 25.7337 71.4968 25.8993C71.358 26.0626 71.2892 26.3272 71.2892 26.6919V28.8928H71.2886ZM73.2346 26.8893C73.2346 27.2893 73.3677 27.625 73.6323 27.8965C73.8969 28.1679 74.2201 28.3033 74.6047 28.3033C74.9546 28.3033 75.2624 28.1667 75.5304 27.8953C75.7984 27.6222 75.9304 27.3053 75.9304 26.9394C75.9338 26.7552 75.9005 26.5721 75.8326 26.4008C75.7648 26.2295 75.6636 26.0734 75.535 25.9414C75.2693 25.6649 74.9546 25.5266 74.5905 25.5266C74.2172 25.5266 73.8969 25.6575 73.6323 25.922C73.5034 26.0475 73.4016 26.1981 73.3332 26.3645C73.2647 26.5308 73.2312 26.7095 73.2346 26.8893ZM75.8952 28.8928V28.4068C75.7234 28.5891 75.5167 28.735 75.2875 28.8359C75.0605 28.9341 74.8156 28.9841 74.5683 28.9827C73.9737 28.9827 73.4804 28.7835 73.086 28.3869C72.694 27.9903 72.4971 27.4936 72.4971 26.8967C72.4971 26.6179 72.5461 26.3533 72.6451 26.1041C72.7429 25.8549 72.8829 25.6353 73.0661 25.4464C73.2653 25.2375 73.4815 25.0839 73.7176 24.9843C73.9744 24.8815 74.2491 24.8309 74.5256 24.8353C74.7947 24.8353 75.0434 24.8831 75.2721 24.9787C75.5009 25.0742 75.7119 25.221 75.9031 25.4145V23.6552H76.6155V28.8928H75.8952ZM78.1478 24.4723H77.4434V23.6552H78.1478V24.4723ZM77.4428 28.8928V24.9354H78.1472V28.8928H77.4428ZM81.3825 28.8928H78.6485V28.3169L80.5586 25.5829H78.8784V24.9348H81.2744V25.666L79.4895 28.2231H81.382V28.8928H81.3825ZM82.5006 26.8893C82.5006 27.2893 82.6338 27.625 82.8995 27.8965C83.0242 28.0283 83.1752 28.1326 83.3427 28.2027C83.5101 28.2728 83.6904 28.307 83.8719 28.3033C84.2207 28.3033 84.5296 28.1667 84.7976 27.8953C85.0645 27.6222 85.1976 27.3053 85.1976 26.9394C85.1976 26.5514 85.0656 26.2191 84.801 25.9414C84.5353 25.6649 84.2207 25.5266 83.8565 25.5266C83.4821 25.5266 83.1629 25.6575 82.8995 25.922C82.7702 26.0473 82.6681 26.1978 82.5995 26.3642C82.5308 26.5306 82.4972 26.7094 82.5006 26.8893ZM85.1624 28.8928V28.4068C84.9803 28.5957 84.7766 28.7391 84.5535 28.8359C84.3266 28.9342 84.0817 28.9842 83.8343 28.9827C83.2409 28.9827 82.7476 28.7835 82.3527 28.3869C81.9595 27.9903 81.7638 27.4936 81.7638 26.8967C81.7638 26.6179 81.8127 26.3533 81.9106 26.1041C82.0064 25.8594 82.1495 25.6359 82.3316 25.4464C82.5308 25.2375 82.7481 25.0839 82.9837 24.9843C83.2404 24.8813 83.5151 24.8307 83.7917 24.8353C84.0631 24.8353 84.3117 24.8831 84.5393 24.9787C84.7669 25.0742 84.9752 25.221 85.1618 25.4145V24.9354H85.881V28.8928H85.1624ZM86.949 28.8928V25.5835H86.3891V24.9354H86.949V23.6552H87.658V24.9354H88.219V25.5835H87.658V28.8928H86.949ZM89.4383 24.4723H88.7339V23.6552H89.4383V24.4723ZM88.7339 28.8928V24.9354H89.4383V28.8928H88.7339ZM90.7954 26.9115C90.7954 27.307 90.9211 27.637 91.1709 27.9004C91.4207 28.165 91.7331 28.2959 92.1075 28.2959C92.4745 28.2959 92.7812 28.1639 93.0298 27.8982C93.2779 27.6336 93.402 27.3013 93.402 26.9036C93.402 26.5036 93.2773 26.1724 93.0298 25.9101C92.7806 25.6489 92.4722 25.5186 92.0995 25.5186C91.9253 25.5153 91.7524 25.549 91.5922 25.6176C91.432 25.6861 91.2882 25.788 91.1704 25.9164C90.9211 26.1826 90.7954 26.5138 90.7954 26.9115ZM90.0574 26.9189C90.0574 26.6367 90.1052 26.3755 90.1997 26.132C90.2941 25.8873 90.4341 25.67 90.6184 25.4754C90.8176 25.262 91.0418 25.0976 91.291 24.9832C91.5345 24.8694 91.8 24.8105 92.0688 24.8108C92.3556 24.8108 92.6224 24.862 92.8677 24.965C93.3712 25.1837 93.7709 25.5883 93.9835 26.0944C94.0882 26.3442 94.1399 26.6026 94.1399 26.8677C94.1399 27.138 94.0899 27.402 93.9931 27.6592C93.8964 27.9164 93.7599 28.1405 93.5852 28.3317C93.3964 28.5442 93.1656 28.7152 92.9075 28.8342C92.6577 28.9485 92.3897 29.0054 92.1075 29.0054C91.8173 29.0054 91.5499 28.9531 91.3052 28.8489C91.0565 28.7413 90.8323 28.5841 90.6463 28.3869C90.462 28.1923 90.3174 27.967 90.2127 27.7093C90.1081 27.4515 90.0574 27.1881 90.0574 26.9189ZM95.4651 28.8928H94.7527V24.9354H95.4361V25.3866C95.5852 25.2091 95.7485 25.0777 95.9271 24.9952C96.1198 24.9098 96.3287 24.8677 96.5394 24.8717C97.0583 24.8717 97.456 25.0242 97.7331 25.3286C98.0102 25.633 98.1485 26.07 98.1485 26.639V28.8928H97.4327V26.7937C97.4327 26.3738 97.3547 26.0614 97.1994 25.8589C97.0441 25.6563 96.8017 25.5556 96.4751 25.5556C96.1206 25.5556 95.864 25.6757 95.7041 25.9135C95.5442 26.1525 95.4651 26.5457 95.4651 27.0959V28.8928ZM42.1311 3.19873H42.6779V30.7511H42.1311V3.19873Z" fill="white"/>
</svg>
