<svg width="50" height="50" viewBox="0 0 50 50" fill="none" xmlns="http://www.w3.org/2000/svg">
  <path d="M25 50C38.8071 50 50 38.8071 50 25C50 11.1929 38.8071 0 25 0C11.1929 0 0 11.1929 0 25C0 38.8071 11.1929 50 25 50Z" fill="#338AF3"/>
  <path d="M39.1304 25.2717H10.8695C10.8695 27.2228 12.5688 28.8043 14.5197 28.8043H14.4021C14.4021 30.7554 15.9837 32.337 17.9347 32.337C17.9347 34.288 19.5163 35.8696 21.4674 35.8696H28.5326C30.4837 35.8696 32.0652 34.288 32.0652 32.337C34.0163 32.337 35.5978 30.7554 35.5978 28.8043H35.4802C37.4309 28.8043 39.1304 27.2228 39.1304 25.2717Z" fill="#FFDA44"/>
  <path d="M34.7826 20.6521C34.7826 26.0548 30.4028 30.4347 25 30.4347C19.5972 30.4347 15.2174 26.0548 15.2174 20.6521" fill="#338AF3"/>
  <path d="M32.4722 20.6522L29.419 22.0884L31.0449 25.0454L27.7295 24.4112L27.3093 27.7604L25.0001 25.297L22.6907 27.7604L22.2707 24.4112L18.9552 25.0452L20.581 22.0883L17.5279 20.6522L20.5811 19.216L18.9552 16.2591L22.2706 16.8933L22.6908 13.5441L25.0001 16.0074L27.3094 13.5441L27.7295 16.8933L31.045 16.2591L29.4191 19.2161L32.4722 20.6522Z" fill="#FFDA44"/>
</svg>
