<svg width="50" height="50" viewBox="0 0 50 50" fill="none" xmlns="http://www.w3.org/2000/svg">
  <path d="M25 50C38.8071 50 50 38.8071 50 25C50 11.1929 38.8071 0 25 0C11.1929 0 0 11.1929 0 25C0 38.8071 11.1929 50 25 50Z" fill="#D80027"/>
  <path d="M37.2262 25L32.2306 27.3498L34.8909 32.1884L29.4658 31.1504L28.7787 36.6304L24.9999 32.6002L21.2213 36.6304L20.5339 31.1504L15.1093 32.1882L17.7695 27.3496L12.7737 25L17.7695 22.6503L15.1093 17.8116L20.5337 18.8497L21.2215 13.3695L24.9999 17.3999L28.7789 13.3695L29.4658 18.8497L34.8911 17.8116L32.2307 22.6506L37.2262 25Z" fill="#FFDA44"/>
  <path d="M25 32.6087C29.2022 32.6087 32.6087 29.2022 32.6087 25C32.6087 20.7979 29.2022 17.3914 25 17.3914C20.7978 17.3914 17.3913 20.7979 17.3913 25C17.3913 29.2022 20.7978 32.6087 25 32.6087Z" fill="#D80027"/>
  <path d="M21.1956 25C21.0123 25 20.8314 25.0094 20.6528 25.0271C20.6593 26.081 21.0406 27.0455 21.6703 27.7948C22.0062 26.8908 22.5078 26.0665 23.1403 25.361C22.5362 25.1287 21.8808 25 21.1956 25Z" fill="#FFDA44"/>
  <path d="M23.5377 29.0949C23.9947 29.2582 24.4868 29.3478 25.0001 29.3478C25.5133 29.3478 26.0054 29.2582 26.4625 29.0949C26.2133 28.1172 25.699 27.2443 25.0001 26.5584C24.3011 27.2443 23.7868 28.1172 23.5377 29.0949Z" fill="#FFDA44"/>
  <path d="M28.7652 22.8267C28.0134 21.5273 26.6094 20.6521 25.0001 20.6521C23.3907 20.6521 21.9867 21.5272 21.2349 22.8267C22.6054 22.8336 23.8906 23.2063 25.0001 23.8498C26.1095 23.2063 27.3945 22.8336 28.7652 22.8267Z" fill="#FFDA44"/>
  <path d="M26.8596 25.361C27.4921 26.0664 27.9937 26.8907 28.3296 27.7948C28.9593 27.0455 29.3406 26.081 29.3471 25.0271C29.1684 25.0093 28.9875 25 28.8042 25C28.1193 24.9999 27.4639 25.1286 26.8596 25.361Z" fill="#FFDA44"/>
</svg>
