<svg width="66" height="67" viewBox="0 0 66 67" fill="none" xmlns="http://www.w3.org/2000/svg">
  <g clip-path="url(#clip0_64_39151)">
    <path fill-rule="evenodd" clip-rule="evenodd" d="M38.8382 6.87396C38.9357 6.87396 39.0322 6.85438 39.1222 6.81635C39.2123 6.77831 39.2941 6.72257 39.363 6.65229C39.432 6.58202 39.4866 6.49859 39.5239 6.40677C39.5612 6.31495 39.5804 6.21654 39.5804 6.11715C39.5804 6.01777 39.5612 5.91936 39.5239 5.82754C39.4866 5.73572 39.432 5.65229 39.363 5.58201C39.2941 5.51174 39.2123 5.45599 39.1222 5.41796C39.0322 5.37993 38.9357 5.36035 38.8382 5.36035C38.6413 5.36035 38.4525 5.44009 38.3133 5.58201C38.1741 5.72394 38.0959 5.91644 38.0959 6.11715C38.0959 6.31787 38.1741 6.51037 38.3133 6.65229C38.4525 6.79422 38.6413 6.87396 38.8382 6.87396V6.87396Z" fill="#363636"/>
    <path fill-rule="evenodd" clip-rule="evenodd" d="M28.5985 5.52348C28.683 5.52458 28.767 5.50869 28.8455 5.47672C28.924 5.44475 28.9956 5.39732 29.0561 5.33713C29.1167 5.27695 29.165 5.2052 29.1984 5.12597C29.2317 5.04674 29.2494 4.96159 29.2505 4.87539C29.2505 4.79028 29.2341 4.706 29.2021 4.62737C29.1702 4.54874 29.1234 4.4773 29.0643 4.41712C29.0053 4.35694 28.9352 4.3092 28.8581 4.27663C28.781 4.24406 28.6983 4.22729 28.6149 4.22729C28.5314 4.22729 28.4487 4.24406 28.3716 4.27663C28.2945 4.3092 28.2244 4.35694 28.1654 4.41712C28.1064 4.4773 28.0596 4.54874 28.0276 4.62737C27.9957 4.706 27.9792 4.79028 27.9792 4.87539C27.9814 5.0466 28.049 5.21018 28.1678 5.33126C28.2865 5.45233 28.447 5.52131 28.6149 5.52348H28.5985Z" fill="#363636"/>
    <path fill-rule="evenodd" clip-rule="evenodd" d="M20.9053 21.5374L20.5854 21.2113C21.4876 20.3458 22.3898 19.0496 22.5497 18.2844C22.5483 18.2109 22.5628 18.1379 22.5921 18.0707C22.6215 18.0036 22.6649 17.9438 22.7194 17.8956C22.7739 17.8474 22.8381 17.812 22.9075 17.792C22.9769 17.7719 23.0498 17.7677 23.121 17.7795C23.1921 17.7913 23.2599 17.819 23.3195 17.8605C23.379 17.902 23.4289 17.9563 23.4655 18.0197C23.5022 18.083 23.5248 18.1538 23.5316 18.227C23.5385 18.3002 23.5295 18.374 23.5052 18.4433C23.2387 19.4719 22.0699 20.6635 20.9053 21.529V21.5374Z" fill="#363636"/>
    <path fill-rule="evenodd" clip-rule="evenodd" d="M14.3769 5.7952C12.7858 6.49765 12.5725 8.17432 13.6879 9.2029C15.0125 10.3904 17.2967 9.36597 17.0834 7.47188C18.8878 7.58059 20.0565 5.63213 19.79 4.33177C20.5855 3.62933 20.6388 2.11572 19.6833 1.51781C18.6212 0.869717 17.6657 1.09968 17.0301 2.32897C15.3898 2.22443 13.7946 3.52061 14.3769 5.7952L13.6346 5.46907C12.6258 3.24884 14.3769 1.03278 16.538 1.57216C16.6999 1.21996 16.9339 0.907174 17.2242 0.654808C17.5146 0.402442 17.8545 0.216343 18.2212 0.109011C18.5878 0.0016786 18.9728 -0.0244006 19.3502 0.032525C19.7276 0.0894505 20.0887 0.228062 20.4092 0.43905C21.7912 1.30456 22.1069 3.57497 20.6224 4.65791C21.3114 6.71507 19.8802 8.4461 17.7519 8.22868C17.4894 10.9339 15.0453 11.2559 13.4009 10.0141C12.6667 9.37261 12.1691 8.49502 11.9902 7.52623C11.777 6.71507 11.777 6.00845 11.0347 5.19729C10.5691 4.81664 9.99114 4.60743 9.39438 4.60355C9.39438 2.6551 7.64333 0.869717 5.41249 1.73523C4.61693 1.03278 3.60813 0.978428 2.91919 1.84394C2.77709 2.03346 2.67977 2.25385 2.63481 2.48796C2.58985 2.72208 2.59845 2.96361 2.65994 3.19378C2.72144 3.42395 2.83417 3.63656 2.98937 3.81508C3.14458 3.99359 3.33807 4.13321 3.55482 4.22306C3.5015 6.00845 4.82607 7.14992 6.79036 6.98267C6.84367 7.90254 7.85247 8.82241 8.80797 8.93112L8.74645 9.42033C7.79096 9.31162 7.25786 9.63357 6.62223 10.4447C4.34217 10.336 2.74695 11.419 2.80026 13.0956C2.48233 13.1278 2.18001 13.2519 1.92888 13.4532C1.67776 13.6546 1.48827 13.925 1.38273 14.2325C1.27718 14.5399 1.25996 14.8718 1.3331 15.1889C1.40623 15.506 1.56668 15.7952 1.79556 16.0225C1.98645 16.2249 2.22424 16.375 2.487 16.459C2.74977 16.543 3.02905 16.5583 3.2991 16.5033C3.56915 16.4483 3.82128 16.3249 4.03224 16.1444C4.2432 15.9639 4.4062 15.7322 4.50621 15.4706C6.14653 15.7925 7.58592 14.6051 7.63923 13.2503C9.12373 13.2503 9.81267 12.6022 10.0792 11.1932L10.6082 11.2475C10.7682 12.7653 10.0792 14.2246 8.27486 14.0615C8.22155 15.9012 6.52381 16.8755 4.87938 16.2817C4.13713 17.7493 2.38608 18.2929 0.954895 16.8838C0.629033 16.5853 0.387255 16.2034 0.254539 15.7778C0.121823 15.3521 0.102982 14.898 0.199963 14.4624C0.296944 14.0268 0.506229 13.6255 0.806198 13.2999C1.10617 12.9744 1.48594 12.7364 1.90629 12.6106C1.90629 10.8252 3.23495 9.14855 5.72825 9.79664C5.82373 9.56553 5.97697 9.36399 6.17269 9.21212C6.36841 9.06025 6.59976 8.96337 6.84367 8.93112C6.59223 8.8665 6.36394 8.73042 6.18536 8.53871C6.00677 8.34701 5.88523 8.10755 5.83487 7.84819C5.41131 7.94449 4.97078 7.93027 4.55404 7.80686C4.1373 7.68345 3.75784 7.45482 3.45078 7.14216C3.14372 6.8295 2.91899 6.4429 2.7974 6.01816C2.6758 5.59341 2.66127 5.14425 2.75516 4.71227C1.05742 3.79239 1.0041 2.06137 1.85297 1.03278C2.70184 0.00420231 4.23555 -0.267578 5.51501 0.869716C7.79916 -0.384652 10.2925 1.19585 10.1325 3.79658C11.7236 3.68786 12.6791 5.05094 12.4659 6.50183C12.5421 6.23338 12.693 5.99326 12.9005 5.81066C13.108 5.62807 13.363 5.51084 13.6346 5.47325L14.3769 5.79938V5.7952Z" fill="#363636"/>
    <path fill-rule="evenodd" clip-rule="evenodd" d="M18.2521 2.65503L18.6212 2.92681C17.8604 4.52917 16.7971 5.96281 15.4922 7.14567L15.0822 6.76518C15.8777 5.469 17.5426 3.30312 18.2685 2.65503H18.2521Z" fill="#363636"/>
    <path fill-rule="evenodd" clip-rule="evenodd" d="M7.31932 11.3103L7.53256 11.7284C6.463 12.7782 5.26854 13.687 3.97715 14.4337L3.65729 14.0156C4.70999 12.8984 5.9502 11.9822 7.31932 11.3103V11.3103Z" fill="#363636"/>
    <path fill-rule="evenodd" clip-rule="evenodd" d="M9.49685 6.66077L9.08676 7.20015C7.85652 6.38899 5.47804 4.22311 4.94904 3.41195L5.32221 3.03564C6.48684 3.62938 8.71769 5.68654 9.51325 6.66077H9.49685Z" fill="#363636"/>
    <path fill-rule="evenodd" clip-rule="evenodd" d="M7.26594 27.3244C7.42587 28.0311 7.26594 28.8422 7.90567 29.599C8.61595 30.5591 9.39593 31.4634 10.239 32.3043C9.00879 32.7893 6.63031 33.8179 4.93258 34.0353C4.54898 34.1189 4.18704 34.2842 3.87046 34.5203C3.59379 35.0796 3.41478 35.6838 3.34146 36.3057C3.28815 36.8493 3.28815 37.443 3.28815 38.0368C3.3596 39.2181 3.64753 40.3754 4.13702 41.4486C4.71933 42.5818 5.30575 43.1211 5.99469 43.4473C6.30622 43.3634 6.62817 43.3268 6.95018 43.3386C7.47611 43.3323 7.99677 43.4458 8.47422 43.6708C8.95167 43.8957 9.37386 44.2265 9.71003 44.6389C9.86586 44.9107 10.239 44.9651 10.6614 44.9651C11.794 44.8989 12.9056 44.6241 13.9421 44.1539C14.2045 43.9908 14.8443 43.5016 15.4799 43.0166C16.1155 42.5316 19.7775 39.3371 21.3687 38.5803C22.499 39.1968 23.7501 39.5482 25.0307 39.6089C25.2439 39.6386 25.4609 39.6201 25.6663 39.5545C26.0764 39.4458 26.6751 39.2828 27.4174 39.1364C28.4851 38.8996 29.5675 38.7375 30.657 38.6514C31.8216 38.7058 35.2704 38.7601 36.1193 38.7601C36.9682 38.7601 38.1697 38.7058 38.6659 38.6514C40.0031 38.2418 41.3185 37.7617 42.6068 37.2131C44.4891 36.2081 46.267 35.0118 47.9133 33.6423C48.1698 33.4373 48.4012 33.2014 48.6022 32.9398C48.6555 32.8311 48.7088 32.7768 48.7088 32.7224C48.7088 32.6681 48.6555 30.3977 48.6555 30.3977C48.6555 30.3977 49.4511 29.5321 49.7709 29.206V29.0973C49.5549 28.0307 49.4832 26.9391 49.5577 25.8527L48.8154 25.5056C48.7489 27.0009 48.31 28.4542 47.5401 29.7287C46.3755 29.8917 44.0913 30.5942 43.2957 31.5684L43.7755 31.6771C44.5257 31.2057 45.3876 30.9513 46.2688 30.9412C47.0644 30.9412 47.4335 31.1586 47.4335 31.3593C47.3884 31.6004 47.3183 31.8359 47.2243 32.0618C47.1731 32.2226 47.0811 32.3669 46.9578 32.4799C45.8475 33.7392 44.5375 34.7993 43.0825 35.6158C41.9725 36.2346 40.7977 36.724 39.5804 37.0751C39.0758 37.1753 38.5794 37.3151 38.0959 37.4932C37.5136 37.4932 34.5405 37.3845 32.7894 37.3845C31.0384 37.3845 27.4297 37.6563 26.3183 37.9239C25.7852 38.0869 25.6253 38.3044 25.043 38.3044C23.9276 38.3044 22.4431 37.7106 21.5409 37.2758C21.2603 37.3404 20.9917 37.4505 20.7453 37.6019C20.1097 37.9239 18.6949 39.981 17.8256 39.3329C17.4155 40.2528 15.5455 41.064 14.955 41.9838C15.0042 41.5657 15.7505 38.4131 15.8038 37.765C15.8038 37.6563 15.8531 37.5476 15.7505 37.4388C15.1108 36.3015 13.1998 35.5991 12.1418 35.3817C11.8753 35.3273 11.7317 35.273 11.5021 35.2228L9.81255 34.7921L8.27474 35.2813L10.0791 35.6033L7.79905 37.1712C8.20913 37.0124 10.6696 36.3057 10.8214 36.2514C11.0626 36.1718 11.3223 36.1718 11.5636 36.2514C11.9368 36.3601 12.839 36.5775 13.4213 36.7949C13.8444 37.0361 14.1936 37.3921 14.4301 37.8235C14.4917 38.1743 14.5273 38.5293 14.5367 38.8855C14.5332 39.3597 14.4795 39.8321 14.3768 40.2946C14.1651 41.1201 13.8436 41.9121 13.4213 42.6487C13.3479 42.8184 13.2384 42.9695 13.1009 43.091C12.9633 43.2125 12.801 43.3013 12.6257 43.3511C12.076 43.6103 11.4801 43.7526 10.8747 43.7692C10.399 43.7692 10.0791 43.7149 9.86586 43.4431C9.4334 42.9011 8.86462 42.4892 8.22033 42.2513C7.57603 42.0134 6.88045 41.9586 6.20793 42.0925C5.25244 41.4988 4.29695 39.5838 4.29695 38.0869C4.37535 37.0306 4.60754 35.992 4.98589 35.0054C6.52369 34.7879 9.65672 33.5963 11.1371 32.9148C11.457 32.9148 12.3674 32.5928 13.1875 32.5928C15.2051 32.5928 17.2227 34.3782 18.4407 35.62C18.6075 35.3339 18.8496 35.1011 19.1395 34.9482C19.4294 34.7952 19.7556 34.7281 20.081 34.7545C21.5122 34.7545 22.3611 36.1092 22.7342 37.4597L23.5093 36.9036C23.356 36.0531 22.9692 35.2644 22.3939 34.6291C21.7948 34.0766 21.0271 33.7517 20.2204 33.7092C19.7406 33.7092 19.3182 33.8179 18.9902 33.8179C17.9814 33.8179 17.559 33.3329 16.7593 32.7893C15.9597 32.2458 14.426 31.3844 13.3105 31.3844C12.6216 31.3844 12.3058 31.6562 11.7194 31.6562C11.4084 31.6796 11.0974 31.6102 10.8243 31.4565C10.5513 31.3029 10.328 31.0715 10.1816 30.7907C9.73024 30.3849 9.30428 29.9506 8.90627 29.4903C8.70016 29.0765 8.54058 28.6403 8.43057 28.19L7.26184 27.3244H7.26594Z" fill="#363636"/>
    <path fill-rule="evenodd" clip-rule="evenodd" d="M8.43471 28.1899C8.6858 28.4822 8.95133 28.7613 9.23027 29.0261C9.55013 29.2394 9.91921 29.4442 10.2391 29.6742C10.7681 29.946 11.3545 30.2679 11.8794 30.4854C12.4567 30.596 13.043 30.6506 13.6304 30.6484C14.4793 30.6484 15.4881 30.4854 16.337 30.916C16.9193 31.1335 16.9193 31.7815 17.3991 31.9446C18.088 32.2164 19.999 32.2708 21.0611 32.2708C23.0032 32.2721 24.9405 32.0732 26.8433 31.677L26.2077 30.916C24.5545 31.1755 22.8883 31.3388 21.217 31.4052C19.4659 31.4052 17.7682 31.0791 17.7682 30.3767C17.7682 29.8373 18.3013 29.0763 19.3593 29.0763C20.4173 29.0763 22.1725 29.7829 22.4923 29.9125C22.5965 29.9472 22.7064 29.9603 22.8155 29.9509C22.9247 29.9416 23.0309 29.9101 23.128 29.8582L23.7636 29.532C22.9147 29.1139 19.8924 28.0728 18.8426 28.0728C18.631 28.0424 18.4152 28.0714 18.2186 28.1569C18.022 28.2424 17.8521 28.381 17.7272 28.5578C17.3581 29.0972 16.2427 29.5864 14.5449 29.5864C13.669 29.5778 12.7968 29.4684 11.945 29.2603C11.177 28.9065 10.4472 28.4721 9.76748 27.9641C8.94629 27.4147 8.24768 26.6953 7.71707 25.8526C7.55127 25.6358 7.45786 25.3706 7.45051 25.0958C7.45051 24.8783 7.55713 24.7153 7.55713 24.5564C7.70801 24.7604 7.88606 24.9419 8.08614 25.0958C9.08879 26.0526 10.3425 26.6918 11.6949 26.9355C12.0755 27.043 12.4686 27.0978 12.8636 27.0986C13.4181 27.0652 13.9435 26.8344 14.3481 26.4463L13.7412 25.7564C13.4966 25.8032 13.2476 25.8214 12.9989 25.8108C10.9813 25.8108 8.43471 24.5146 7.85239 22.9424C7.79908 22.7835 7.69246 22.7292 7.79908 22.5661C7.9057 22.4031 7.9057 22.148 7.95901 21.8637C8.06153 21.9682 8.32809 22.1856 8.59464 22.4031C9.33689 22.8881 10.7681 23.5403 11.0879 23.7536C11.6544 23.5704 12.2034 23.3353 12.7283 23.0511C13.2367 22.7862 13.7977 22.6432 14.3686 22.633C15.8531 22.633 17.5549 23.4985 19.1461 24.3055L20.2082 23.8874C18.7729 22.8588 15.7506 21.4539 14.0569 21.4539C13.0481 21.4539 12.0926 22.2107 11.4037 22.2107C10.604 22.2107 8.27068 21.0232 8.27068 20.049C8.27068 19.288 9.75517 18.8574 12.2526 18.5856C11.8425 19.1835 11.4037 19.886 11.0223 20.534L11.658 20.9145C15.4799 15.2322 19.511 11.5528 22.8532 9.28236C23.7163 8.79937 24.3941 8.03319 24.7765 7.10812C25.8386 4.89207 26.8269 3.26557 28.5451 3.26557C28.9133 3.28014 29.2741 3.37457 29.6037 3.54256C29.9332 3.71056 30.2238 3.94825 30.4561 4.2398L31.6864 4.62029L30.4151 5.4858L31.6864 6.02518C30.6024 6.40059 29.6079 7.004 28.7672 7.79631C27.9265 8.58863 27.2585 9.55218 26.8064 10.6245C25.0553 10.6789 24.2065 12.1925 23.6241 13.3841C23.2141 14.2497 22.6153 14.5758 21.6599 15.1695L14.3768 20.3459L15.3856 20.509L22.1232 15.9096C23.4519 14.9897 24.0875 14.2873 24.4074 13.6936C24.9897 12.3932 25.6787 11.419 27.0073 11.419C27.7259 11.4628 28.4047 11.7702 28.9183 12.2845L30.0829 12.665L28.8117 13.4761L29.8697 14.1242C26.79 15.0984 24.8831 17.373 23.7677 21.7006L24.5673 21.8637C24.9274 20.5114 25.4436 19.2075 26.1051 17.9793C27.9095 17.9793 29.7139 17.925 31.5182 17.925C36.2383 17.925 40.1669 18.1424 42.287 18.7361L41.5529 17.4274C39.2729 17.0093 35.9799 16.8295 31.5264 16.8295C29.9845 16.8295 28.5 16.8838 26.9622 16.8838C28.2365 15.6286 29.8096 14.7337 31.5264 14.2873L29.9763 13.4218L31.6741 12.4475L29.3407 11.582C28.9182 11.1404 28.3871 10.8227 27.8029 10.6622C28.5451 8.3374 31.0835 6.98268 33.544 6.06281L31.834 5.36037L33.5317 4.38614L30.8908 3.52063C30.6181 3.139 30.2582 2.83099 29.8423 2.62333C29.4263 2.41567 28.967 2.31463 28.5041 2.32898C26.0436 2.32898 25.0553 4.49485 24.0465 6.38895C23.7259 7.2512 23.1272 7.97663 22.3488 8.44611C19.9663 10.07 17.766 11.9559 15.7875 14.0699C14.59 13.2044 12.0967 10.6078 11.4611 9.19874C11.238 9.53458 11.0588 9.89862 10.928 10.2817C11.1946 10.5493 14.061 13.4719 15.119 14.7681C15.0313 14.8507 14.9566 14.9466 14.8976 15.0525C13.7289 15.2699 10.7558 15.596 9.74697 15.4329L9.21797 16.4615C9.96021 16.4072 12.88 16.0434 14.139 15.9723C13.7699 16.3904 13.3967 16.8922 13.0276 17.3814C9.20566 17.7995 6.71236 18.6358 6.71236 20.0323C6.71236 20.2455 6.76567 20.5173 6.76567 20.7891C6.78279 21.0145 6.73083 21.2398 6.61697 21.4338C6.5031 21.6277 6.33296 21.7809 6.13005 21.872C5.86349 22.0309 5.86349 22.194 5.97012 22.3571C6.25109 22.7252 6.49431 23.1217 6.69596 23.5403C6.69596 23.8623 6.42941 24.1341 6.22027 24.4059C6.01112 24.6776 6.00702 24.6735 6.16695 24.9452L7.27828 27.3244L8.44701 28.1899H8.43471Z" fill="#363636"/>
    <path fill-rule="evenodd" clip-rule="evenodd" d="M55.3932 14.9354C55.1841 15.1528 54.9831 15.4789 54.7576 15.7465L54.1753 14.881C56.1888 12.1214 61.6019 10.8252 64.7882 10.5534V9.09419C64.3781 9.2029 63.9393 9.36597 63.5128 9.4705C63.0308 9.61511 62.5308 9.68833 62.0283 9.68792C61.8393 9.70918 61.6481 9.68209 61.472 9.60908C61.2959 9.53608 61.1404 9.41947 61.0195 9.2698C60.6095 8.67189 61.0195 7.75202 62.3974 6.8865L61.2861 5.91228C60.4372 7.04957 59.6458 8.29558 58.7887 8.99802C57.9316 9.70047 57.1976 10.0266 56.5619 9.5374C56.1888 9.2698 56.0862 9.16109 56.0329 8.45864C56.2023 7.18825 56.5969 5.95988 57.1976 4.83352L55.9263 4.67045C55.709 6.08735 55.182 7.43631 54.3844 8.61753C53.6362 9.86286 52.6212 10.9193 51.4154 11.7075L50.6732 11.005C51.7813 10.3619 52.7297 9.4678 53.4453 8.39174C54.3475 6.98267 55.0856 5.25164 55.0856 3.73804L58.7969 4.06417C58.0757 5.08981 57.5038 6.21648 57.0991 7.40915C56.9433 8.00289 56.9433 8.49209 57.1525 8.66352C57.5256 8.9353 58.2146 8.45028 58.9035 7.74365C59.7296 6.72997 60.4925 5.66446 61.1877 4.55338L63.9475 6.82378C62.7173 7.47605 61.5567 8.23286 61.77 8.66352C61.9832 9.09419 62.7788 8.9353 63.6277 8.66352C64.3365 8.44737 65.0147 8.13815 65.6453 7.74365V11.4775C63.7204 11.5263 61.8105 11.8356 59.9656 12.3974C60.4987 13.0998 61.9299 13.3716 62.8362 13.5347L62.4261 16.5619C60.2353 15.507 57.8447 14.9533 55.4219 14.9395L56.3774 14.074C58.2312 14.1386 60.0536 14.5807 61.7372 15.3744L61.8971 14.2371C60.835 14.074 59.5104 13.4803 58.924 12.7779C58.0206 13.0882 57.1637 13.5244 56.3774 14.074L55.4219 14.9395L55.3932 14.9354Z" fill="#363636"/>
    <path fill-rule="evenodd" clip-rule="evenodd" d="M44.2513 24.5689L45.1002 22.6204C44.0753 21.3893 43.1353 20.0872 42.287 18.7235L41.5529 17.4274C39.8019 14.0824 40.4375 12.4475 39.5353 10.9339C38.7398 9.74226 35.0244 10.5158 34.4421 10.6078L35.5042 8.82239L33.38 8.98546L35.1844 6.81958C35.4171 6.41929 35.5794 5.98064 35.6642 5.5234C35.9799 4.33175 36.9354 2.3833 39.8019 2.3833C42.9349 2.3833 43.9396 4.97984 45.2683 6.11714C46.8594 7.4175 48.877 9.20288 50.6814 10.9883L51.4154 11.7074C52.4013 12.7096 53.3232 13.7752 54.1753 14.8977L54.7576 15.7632C58.5795 21.3912 63.2463 32.1578 65.3705 37.0875C65.5304 37.5725 65.6904 38.0575 65.8462 38.438C64.4137 37.6213 62.8772 36.6401 61.2369 35.4944L60.3347 34.8464L58.5837 33.546L57.6282 32.7348C57.0382 32.2976 56.4715 31.8286 55.9304 31.3299L57.8373 42.5273C57.9439 43.2339 58.5303 43.1252 58.9527 42.5273C59.3751 41.9294 59.5924 41.7705 59.3628 41.0137L57.6118 32.7348L58.5672 33.546L60.265 40.5286C60.4249 41.1767 60.6751 41.3942 61.4296 41.3942C62.1842 41.3942 62.2785 41.1767 62.176 40.6875L60.3183 34.8338L61.2205 35.4819L62.9715 40.7293C63.4472 42.0841 62.9715 42.2471 62.176 42.2471C61.3804 42.2471 60.6874 42.0297 60.265 42.3015C59.8426 42.5733 59.3095 43.3802 58.6247 44.0325C58.0916 44.6263 57.2427 44.5175 57.0827 43.3802L54.9626 30.4519C53.6229 29.2218 52.3471 27.921 51.1407 26.555C50.665 26.3417 50.0785 26.07 49.5495 25.8525L48.8155 25.5055C48.4956 25.3466 48.2824 25.2923 48.2291 25.2379C47.6835 25.9713 47.0815 26.6592 46.4288 27.2951C46.2985 27.4516 46.1355 27.5764 45.9517 27.6603C45.7679 27.7443 45.568 27.7852 45.3667 27.7801C45.1824 27.797 44.9973 27.7592 44.8336 27.6714C44.5904 27.5071 44.3905 27.2846 44.2513 27.0233C44.0914 26.8059 43.8781 26.4797 43.669 26.1578C43.2589 25.4553 42.8201 24.5354 42.3936 23.8288C41.9835 23.0177 41.5447 22.4239 41.4914 22.3152C41.4295 22.1863 41.3381 22.0744 41.2249 21.9891C40.9559 22.4279 40.8138 22.9351 40.8148 23.4525L40.0725 23.1807C40.1333 22.6404 40.2714 22.1121 40.4826 21.6128C40.4705 21.4537 40.4086 21.3028 40.3059 21.1823C40.2033 21.0619 40.0654 20.9783 39.9126 20.9438C39.5394 20.9438 39.1704 21.3201 39.0104 22.0769L38.2149 22.4574C38.2723 21.2114 38.6824 19.8608 39.9126 19.8608C40.8681 19.8608 41.5037 20.6176 41.9302 21.3201C42.3567 22.0225 43.9437 24.134 44.2636 24.5689L44.8336 25.3257C44.9053 25.6583 45.0451 25.9718 45.2437 26.2456C45.4569 26.5675 45.6538 26.5675 45.9859 26.2456C46.3612 25.9457 46.716 25.6202 47.048 25.2713C47.373 24.9129 47.6744 24.533 47.9502 24.1341C48.3603 24.2971 49.2215 24.7278 49.8612 24.9996C47.048 21.4288 44.2882 17.1012 43.1195 14.1785C42.6438 12.9242 43.5992 12.5562 44.0216 13.7604C45.297 17.0051 48.9426 22.7961 51.6656 25.8233C54.7576 29.2686 60.4372 34.3613 64.1485 36.3767C63.6195 35.2979 62.9182 33.7801 62.0981 31.9948C57.5872 29.3982 53.0762 24.6358 50.952 20.5257L51.8542 20.6344C53.8185 24.2051 58.5426 28.9676 61.3558 30.3181C58.8051 24.7989 55.4629 17.8204 52.9163 14.8475C50.3081 11.9317 47.4883 9.2202 44.4809 6.73596C42.8406 5.21817 42.1435 3.39098 39.8101 3.39098C37.8458 3.39098 36.7878 4.85441 36.4146 6.2593C36.3414 6.52493 36.2339 6.77944 36.0947 7.0161L35.1393 8.1534L37.1569 7.93597L35.9881 9.55829C35.9881 9.55829 39.0924 8.82239 40.2202 10.336C41.3848 11.9625 40.6303 13.8022 42.6069 17.4441C43.6429 19.2349 44.8518 20.9158 46.2156 22.4616L44.8336 25.3257L44.2513 24.5689Z" fill="#363636"/>
    <path fill-rule="evenodd" clip-rule="evenodd" d="M13.368 25.0539L12.8923 24.7277C13.2977 24.4003 13.7429 24.1276 14.2168 23.9166C14.4708 23.8158 14.74 23.7607 15.0124 23.7535C15.5274 23.7773 16.0252 23.9498 16.4477 24.2511C17.1366 24.6274 17.9322 25.0622 18.5678 25.0622C18.7811 25.0622 18.9779 25.0079 19.2608 25.0079C19.8965 25.0079 20.4911 25.2797 20.7987 25.2797C21.0119 25.2797 21.1144 25.1166 21.2743 24.8992C21.6103 24.3975 22.0944 24.0182 22.6563 23.8162C23.3488 23.5436 24.0879 23.4156 24.8298 23.4399C25.3638 23.4469 25.8962 23.5015 26.4209 23.603C26.4209 23.603 25.9452 24.1967 25.8386 24.3598C25.1496 24.3598 23.9276 24.3054 23.132 24.6274C22.9327 24.6798 22.7564 24.799 22.6315 24.9658C22.5066 25.1326 22.4402 25.3374 22.4431 25.5473C22.4431 26.1452 23.132 26.4128 23.821 26.6302C24.257 26.7317 24.7024 26.7864 25.1496 26.7933C25.9797 26.7235 26.8027 26.5836 27.6101 26.3751C28.4717 26.2128 29.3222 25.995 30.1567 25.7229L30.5668 26.4797C29.3201 26.9341 28.0428 27.296 26.7448 27.5626C26.1198 27.7259 25.4788 27.8171 24.8339 27.8344C23.811 27.7699 22.8151 27.4743 21.9182 26.9689C21.1718 26.6427 20.5362 26.2664 19.9006 26.2664C19.2384 26.2793 18.5938 26.4853 18.0429 26.8602C17.3934 27.2802 16.7196 27.66 16.0253 27.9975C15.4671 28.2245 14.8748 28.3518 14.2742 28.3738C13.8556 28.3953 13.4426 28.2682 13.1055 28.0142L14.0774 27.433C14.2195 27.5283 14.3834 27.5845 14.5531 27.5961C14.7948 27.5717 15.0291 27.4977 15.242 27.3786C15.5 27.2761 15.7484 27.1501 15.9843 27.0023C16.3575 26.7305 16.4641 26.5842 16.624 26.4588C16.7041 26.4224 16.7729 26.3644 16.8229 26.291C16.873 26.2176 16.9023 26.1317 16.9078 26.0425C16.9133 25.9533 16.8947 25.8642 16.8541 25.785C16.8135 25.7058 16.7523 25.6395 16.6773 25.5933C16.4641 25.4344 16.3042 25.2713 16.0909 25.1082C15.7349 24.8431 15.3012 24.709 14.8607 24.7277C14.3455 24.7077 13.8337 24.8198 13.3721 25.0539H13.368Z" fill="#363636"/>
    <path fill-rule="evenodd" clip-rule="evenodd" d="M26.8474 25.4344C26.6039 25.3629 26.3559 25.3084 26.1051 25.2713C26.4583 24.7847 26.8878 24.3609 27.3764 24.017C28.2215 23.4247 29.2214 23.1043 30.2469 23.0971C30.7024 23.0349 31.1612 23.0014 31.6207 22.9967C31.9939 23.0511 32.5762 23.0511 33.1093 23.1598C33.4784 23.2142 33.8516 23.3229 34.1714 23.3772C34.5042 23.4317 34.8433 23.4317 35.1761 23.3772C36.0431 23.2399 36.8849 22.9707 37.6735 22.5786L37.8827 23.4149C36.718 24.0629 35.3894 24.6692 34.1181 24.6692C33.5317 24.6692 32.8427 24.6149 32.2071 24.5647C31.145 24.456 30.1895 24.2929 29.8697 24.2929C28.7709 24.343 27.7146 24.7404 26.8474 25.4302V25.4344Z" fill="#363636"/>
    <path fill-rule="evenodd" clip-rule="evenodd" d="M25.9985 30.247L24.8831 29.7076C26.4438 28.9493 28.0817 28.3688 29.7672 27.9766C30.6767 27.8685 31.5792 27.7051 32.4696 27.4874C32.7895 28.2442 33.3718 29.0052 34.1715 29.0052C34.6311 28.9346 35.0777 28.7936 35.496 28.5871C36.0784 28.3153 36.6115 28.0477 36.9272 27.939C37.243 27.8303 38.2559 27.3411 39.1581 26.9104C39.4738 26.7473 40.3883 26.3167 40.4293 26.3167L41.0157 26.6386C40.8293 27.4744 40.5629 28.2894 40.2202 29.0721C40.1196 29.3028 39.9944 29.5215 39.847 29.7243C39.4682 30.1207 39.0566 30.4831 38.6168 30.8073C37.9556 31.275 37.2712 31.7076 36.5663 32.1035C35.9817 32.4596 35.3795 32.7848 34.762 33.0777L34.4954 32.484C35.4288 31.9199 36.3323 31.3058 37.202 30.6442C37.5589 30.3817 37.8961 30.0924 38.2108 29.7787C38.3772 29.6442 38.5165 29.4781 38.6209 29.2895C38.9532 28.8597 39.2289 28.3874 39.441 27.8846C39.0679 28.0477 37.8007 28.6958 37.2102 28.9675C36.5212 29.3439 35.4591 29.8874 34.8235 30.2219C34.4554 30.4111 34.0505 30.514 33.6384 30.523C33.3869 30.5198 33.142 30.4412 32.9341 30.2969C32.7263 30.1527 32.5647 29.9491 32.4696 29.7118C32.0596 28.955 31.6208 28.9006 30.4192 28.9006C28.8539 28.907 27.324 29.3761 26.0149 30.2512L25.9985 30.247Z" fill="#363636"/>
    <path fill-rule="evenodd" clip-rule="evenodd" d="M32.5311 26.6762C32.5311 26.6762 32.3753 26.0282 32.2687 25.7564C32.4247 25.7201 32.5843 25.7019 32.7444 25.702C33.1175 25.702 34.1797 25.8107 34.602 25.8107C36.1932 25.8107 36.7796 25.3257 37.2553 24.8909C37.5072 24.6429 37.8077 24.4521 38.137 24.3311C38.4664 24.21 38.8171 24.1614 39.1663 24.1884C39.9875 24.2177 40.7965 24.4006 41.5529 24.7278L41.4996 25.6477C40.9747 25.3718 40.3925 25.2284 39.8019 25.2295C39.4575 25.1951 39.1102 25.2513 38.7931 25.3926C38.5328 25.5732 38.2848 25.7716 38.0508 25.9863C37.6943 26.2593 37.3006 26.4776 36.8821 26.6344C36.2281 26.8864 35.5299 26.9974 34.8317 26.9606C34.0571 26.9501 33.2858 26.8548 32.5311 26.6762V26.6762Z" fill="#363636"/>
    <path fill-rule="evenodd" clip-rule="evenodd" d="M22.3365 33.4499L23.0992 33.1154C23.8398 33.4467 24.6302 33.6475 25.4367 33.7092C25.7784 33.6902 26.113 33.602 26.4209 33.4499C26.6341 33.3412 29.1274 32.0952 30.3495 31.6645C30.6514 31.5337 30.9733 31.4573 31.3009 31.4387C31.6166 31.4387 31.6166 31.5475 31.711 31.7105C31.9242 32.0868 33.7614 34.7377 33.9418 34.9008C35.4796 34.4116 37.0707 33.7092 37.9729 32.8436C38.8751 31.9781 39.724 30.8408 40.5195 29.9753C40.7598 29.7057 41.0326 29.4683 41.3315 29.2687C42.127 28.8506 44.6121 28.7837 45.6291 28.8506L45.0468 29.7161C43.1892 29.7161 42.1763 29.9335 41.7047 30.2555C41.4344 30.5227 41.1861 30.8122 40.9624 31.121C40.3268 31.9321 39.6337 33.0694 39.3713 33.2868C39.9588 33.7477 40.6805 33.995 41.4217 33.9893C42.9595 33.9893 44.0749 33.0151 44.6614 32.4757L45.1904 32.7433C44.8133 33.2897 44.3473 33.7663 43.8125 34.1524C43.2402 34.5283 42.6171 34.817 41.963 35.0095C41.0608 34.8464 39.0924 34.4116 38.6167 34.3614C36.919 35.0639 34.1058 36.197 33.2078 36.452C33.0018 36.5237 32.7857 36.5604 32.568 36.5607C31.6666 36.6153 30.7629 36.6153 29.8615 36.5607C29.3305 36.5759 28.7992 36.5578 28.2704 36.5064L27.4215 35.6409C27.9776 35.7733 28.5487 35.8282 29.1192 35.8039C30.1278 35.8098 31.1341 35.7061 32.121 35.4945C32.4409 35.3858 32.4901 35.2269 32.3876 34.9552C32.2075 34.4984 31.9554 34.0747 31.6412 33.7008C31.3912 33.4493 31.1255 33.2147 30.8457 32.9983C30.6365 32.8353 30.4356 32.7809 29.7877 32.9983C28.7481 33.4569 27.7374 33.9805 26.7613 34.5663C26.3504 34.7768 25.8753 34.8158 25.4367 34.675C24.3615 34.3938 23.3263 33.9722 22.357 33.4206L22.3365 33.4499Z" fill="#363636"/>
    <path fill-rule="evenodd" clip-rule="evenodd" d="M27.1672 13.7479C27.3324 13.7352 27.4875 13.6623 27.6043 13.5425C27.721 13.4227 27.7915 13.2641 27.8029 13.0956C27.7997 12.9247 27.7317 12.7618 27.6132 12.6409C27.4947 12.5201 27.3348 12.4508 27.1672 12.4475C27.0827 12.444 26.9983 12.4584 26.9194 12.4896C26.8405 12.5209 26.7688 12.5685 26.7087 12.6293C26.6487 12.6901 26.6016 12.7629 26.5704 12.8432C26.5392 12.9234 26.5246 13.0094 26.5275 13.0956C26.5296 13.2679 26.5977 13.4326 26.7172 13.5545C26.8368 13.6763 26.9982 13.7457 27.1672 13.7479V13.7479Z" fill="#363636"/>
    <path fill-rule="evenodd" clip-rule="evenodd" d="M51.2021 51.1322C51.1925 50.8819 51.0871 50.6454 50.9085 50.4735C50.7298 50.3015 50.4923 50.2078 50.2466 50.2123H48.9344C48.6888 50.2078 48.4512 50.3015 48.2725 50.4735C48.0939 50.6454 47.9885 50.8819 47.9789 51.1322L48.0322 65.6285C48.0305 65.7498 48.0527 65.8701 48.0975 65.9825C48.1422 66.0949 48.2086 66.197 48.2927 66.2827C48.3769 66.3685 48.477 66.4362 48.5872 66.4818C48.6974 66.5274 48.8154 66.5501 48.9344 66.5484H50.2589C50.5046 66.5529 50.7422 66.4592 50.9208 66.2872C51.0994 66.1153 51.2048 65.8788 51.2144 65.6285V51.1322H51.2021Z" fill="#363636"/>
    <path fill-rule="evenodd" clip-rule="evenodd" d="M52.8999 51.5629V52.2152C52.8963 52.2874 52.9077 52.3595 52.9333 52.4268C52.9588 52.4942 52.9981 52.5553 53.0484 52.6062C53.0986 52.6571 53.1589 52.6966 53.2252 52.7222C53.2914 52.7478 53.3622 52.7588 53.433 52.7546H62.7705C62.9796 52.7483 63.1784 52.6608 63.3262 52.51C63.4741 52.3592 63.5599 52.1566 63.5661 51.9434V50.8061C63.5678 50.6991 63.5483 50.5929 63.5089 50.4937C63.4695 50.3945 63.411 50.3044 63.3368 50.2288C63.2626 50.1531 63.1742 50.0934 63.0769 50.0533C62.9797 50.0131 62.8755 49.9933 62.7705 49.995C62.7705 49.995 53.7487 50.9148 53.433 50.9692C53.3592 50.9707 53.2865 50.9875 53.2192 51.0185C53.152 51.0496 53.0916 51.0942 53.0417 51.1497C52.9919 51.2052 52.9536 51.2704 52.9292 51.3415C52.9049 51.4125 52.8949 51.4878 52.8999 51.5629Z" fill="#363636"/>
    <path fill-rule="evenodd" clip-rule="evenodd" d="M45.3134 66.5485C44.8202 66.5667 44.3286 66.4824 43.8685 66.3008C43.4083 66.1191 42.9892 65.8439 42.6367 65.4919C42.2841 65.1399 42.0055 64.7184 41.8178 64.2531C41.6301 63.7878 41.5372 63.2885 41.5447 62.7854V56.9735H40.8558C40.6907 56.9627 40.5351 56.8909 40.4181 56.7716C40.3012 56.6524 40.2308 56.4937 40.2202 56.3254V55.3512C40.2212 55.1796 40.2885 55.0154 40.4075 54.8941C40.5265 54.7728 40.6875 54.7042 40.8558 54.7031H41.5529V51.1323C41.5518 51.0112 41.5744 50.8911 41.6194 50.779C41.6643 50.6669 41.7307 50.565 41.8147 50.4794C41.8987 50.3937 41.9986 50.326 42.1086 50.2802C42.2185 50.2344 42.3363 50.2113 42.4551 50.2124H43.7838C44.0151 50.2222 44.2335 50.324 44.3921 50.4959C44.5508 50.6678 44.6371 50.8963 44.6326 51.1323V54.7031H46.683C46.7678 54.6989 46.8524 54.7128 46.9316 54.7439C47.0108 54.7749 47.0828 54.8225 47.1429 54.8834C47.2031 54.9444 47.2502 55.0175 47.2811 55.098C47.3121 55.1785 47.3263 55.2647 47.3228 55.3512V56.3254C47.3206 56.4973 47.2524 56.6615 47.1328 56.7827C47.0132 56.9039 46.8517 56.9724 46.683 56.9735H44.6326V62.3296C44.6162 62.5684 44.6502 62.808 44.7324 63.0322C44.8146 63.2564 44.9431 63.46 45.1091 63.6293C45.2751 63.7985 45.4747 63.9295 45.6946 64.0133C45.9145 64.0971 46.1495 64.1318 46.3837 64.115H46.5928C46.6842 64.111 46.7755 64.1261 46.861 64.1593C46.9464 64.1925 47.0244 64.2431 47.09 64.3081C47.1557 64.3731 47.2076 64.451 47.2427 64.5372C47.2778 64.6233 47.2953 64.7158 47.2941 64.8091V65.8377C47.2909 66.0237 47.2167 66.2011 47.0873 66.3323C46.9579 66.4634 46.7835 66.538 46.601 66.5401L45.3134 66.5485Z" fill="#363636"/>
    <path fill-rule="evenodd" clip-rule="evenodd" d="M29.394 60.4354C29.394 57.3538 27.5896 54.2681 23.5052 54.2681C19.7366 54.2681 17.6656 57.2995 17.6656 60.4354C17.6656 63.7804 19.8965 66.7658 23.5585 66.7658C26.0518 66.7658 28.4795 65.4696 28.9716 63.2494C28.9837 63.1673 28.9793 63.0835 28.9588 63.0032C28.9383 62.9229 28.902 62.8477 28.8522 62.782C28.8024 62.7164 28.7401 62.6617 28.669 62.6213C28.5979 62.5809 28.5195 62.5556 28.4385 62.5469H26.6341C26.4854 62.5446 26.3387 62.5819 26.2085 62.6553C26.0782 62.7286 25.9691 62.8354 25.8919 62.965C25.6315 63.343 25.2801 63.6462 24.8714 63.8454C24.4627 64.0446 24.0105 64.1331 23.5585 64.1023C22.8546 64.1068 22.1758 63.8355 21.6623 63.3446C21.1488 62.8537 20.8396 62.1805 20.7987 61.464H28.3852C28.522 61.4825 28.6611 61.4687 28.7918 61.4236C28.9225 61.3785 29.0413 61.3033 29.1388 61.2038C29.2364 61.1043 29.3102 60.9832 29.3544 60.85C29.3987 60.7167 29.4122 60.5748 29.394 60.4354ZM20.852 59.1392C20.9198 58.4748 21.2304 57.8607 21.722 57.4191C22.2136 56.9775 22.8502 56.7408 23.5052 56.7559C24.1718 56.739 24.8213 56.9724 25.3302 57.4118C25.839 57.8512 26.1717 58.466 26.2651 59.1392H20.852Z" fill="#363636"/>
    <path fill-rule="evenodd" clip-rule="evenodd" d="M63.886 60.4354C63.886 57.3538 62.0816 54.2681 57.9931 54.2681C54.2286 54.2681 52.1577 57.2995 52.1577 60.4354C52.1577 63.7804 54.3844 66.7658 58.0464 66.7658C60.5397 66.7658 62.9674 65.4696 63.4595 63.2494C63.4722 63.1675 63.4684 63.0839 63.4484 63.0036C63.4283 62.9233 63.3925 62.848 63.343 62.7823C63.2935 62.7165 63.2314 62.6618 63.1605 62.6213C63.0896 62.5809 63.0113 62.5555 62.9305 62.5469H61.1261C60.9773 62.5437 60.8302 62.5807 60.6998 62.6541C60.5695 62.7276 60.4605 62.8348 60.3839 62.965C60.1156 63.3489 59.7544 63.6554 59.3354 63.8547C58.9164 64.054 58.454 64.1393 57.9931 64.1023C57.2955 64.0957 56.6267 63.8176 56.1236 63.3248C55.6205 62.832 55.3211 62.1619 55.2866 61.4514H62.8772C63.014 61.47 63.1531 61.4562 63.2838 61.4111C63.4145 61.3659 63.5332 61.2907 63.6308 61.1912C63.7284 61.0918 63.8022 60.9707 63.8464 60.8374C63.8907 60.7042 63.9042 60.5623 63.886 60.4228V60.4354ZM55.3399 59.1392C55.4312 58.4808 55.7526 57.8781 56.245 57.4421C56.7374 57.006 57.3676 56.7659 58.0198 56.7659C58.6719 56.7659 59.3022 57.006 59.7946 57.4421C60.2869 57.8781 60.6084 58.4808 60.6997 59.1392H55.3399Z" fill="#363636"/>
    <path fill-rule="evenodd" clip-rule="evenodd" d="M38.9981 50.3755H14.4875C14.2207 50.3755 13.9647 50.4833 13.7756 50.6753C13.5866 50.8673 13.4798 51.1278 13.4787 51.3999L13.532 61.2467C13.532 61.2467 8.27478 51.5086 8.00823 51.011C7.84618 50.7282 7.61363 50.4942 7.33418 50.3326C7.05473 50.171 6.73834 50.0877 6.41711 50.0912H4.40361C4.27167 50.0933 4.14143 50.122 4.02035 50.1755C3.89928 50.229 3.78972 50.3063 3.69794 50.403C3.60617 50.4997 3.53397 50.6138 3.48548 50.739C3.43698 50.8641 3.41314 50.9978 3.41531 51.1323V65.5241C3.4107 65.6602 3.43368 65.7959 3.4828 65.9226C3.53192 66.0493 3.60613 66.1643 3.7008 66.2604C3.79547 66.3565 3.90856 66.4317 4.03301 66.4813C4.15746 66.5309 4.2906 66.5537 4.42411 66.5485H5.69537C5.82805 66.552 5.96002 66.5278 6.08323 66.4775C6.20644 66.4272 6.31829 66.3518 6.41195 66.2559C6.5056 66.16 6.57909 66.0457 6.62793 65.9198C6.67676 65.794 6.69992 65.6593 6.69597 65.5241L6.64266 55.4599C6.64266 55.4599 11.9368 65.2523 12.2034 65.6453C12.3454 65.9335 12.5662 66.1737 12.839 66.3369C13.1118 66.5001 13.4252 66.5794 13.7412 66.5652H15.5988C15.7322 66.5698 15.8651 66.5465 15.9893 66.4968C16.1134 66.447 16.2263 66.3718 16.3208 66.2758C16.4154 66.1797 16.4896 66.065 16.5389 65.9386C16.5883 65.8122 16.6117 65.6768 16.6077 65.5408V52.809H38.9981C39.1799 52.8057 39.3533 52.7307 39.4818 52.5997C39.6103 52.4686 39.6839 52.2918 39.6871 52.1065V51.0779C39.6849 50.8923 39.6117 50.7149 39.4829 50.5836C39.3542 50.4524 39.1802 50.3777 38.9981 50.3755V50.3755Z" fill="#363636"/>
    <path fill-rule="evenodd" clip-rule="evenodd" d="M35.0203 56.6514C36.0783 56.6514 36.8739 57.0277 37.1938 57.7301C37.3004 58.0563 37.5669 58.1106 37.936 58.1106H39.4246C39.5618 58.1009 39.6908 58.0409 39.788 57.9418C39.8853 57.8427 39.9441 57.7111 39.9536 57.5712C39.9536 55.836 37.9032 54.2681 35.0326 54.2681C32.0595 54.2681 30.1117 55.7315 30.1117 58.0019C30.1117 59.7873 31.4936 60.8159 33.1381 61.3009C33.9336 61.464 35.2582 61.7901 35.8979 62.0075C36.5376 62.2249 37.1692 62.3838 37.1692 62.9776C37.1692 63.9518 36.2137 64.2319 35.1188 64.2319C34.11 64.2319 33.1012 63.8138 32.8346 63.0403C32.6747 62.6222 32.3589 62.5553 31.9324 62.5553H30.4028C30.2538 62.5656 30.1133 62.6298 30.0065 62.7364C29.8998 62.8429 29.8338 62.9848 29.8205 63.1365V63.3539C29.8205 65.0264 32.0472 66.7616 35.1229 66.7616C37.2471 66.7616 40.2735 65.8417 40.2735 62.9232C40.2735 61.188 39.1581 59.9964 37.3004 59.5113C36.6115 59.3524 34.9137 58.8632 34.5405 58.8089C33.8516 58.5915 33.216 58.3908 33.216 57.8347C33.216 56.9148 34.0115 56.6472 35.0203 56.6472V56.6514Z" fill="#363636"/>
  </g>
  <defs>
    <clipPath id="clip0_64_39151">
      <rect width="65.7115" height="66.7658" fill="white" transform="translate(0.134644)"/>
    </clipPath>
  </defs>
</svg>
