<svg width="16" height="17" viewBox="0 0 16 17" fill="none" xmlns="http://www.w3.org/2000/svg">
  <path d="M15.4175 11.0328L11.7259 5.18805L13.2926 2.73705C13.6267 2.24452 13.7577 1.64206 13.6584 1.05529C13.6276 0.890617 13.5639 0.733827 13.4713 0.594232C13.3787 0.454637 13.2589 0.335087 13.1192 0.242686L13.0325 0.186125C12.3292 -0.262597 11.3017 0.125792 10.6946 1.07414L9.2221 3.37054L1.07534 2.61639C1.02383 2.61157 0.971977 2.62097 0.925436 2.64358C0.878896 2.66618 0.839448 2.70112 0.811388 2.74459L0.208065 3.67975C0.184859 3.71575 0.170136 3.75656 0.165008 3.79909C0.159879 3.84162 0.164479 3.88476 0.178461 3.92525C0.192442 3.96574 0.21544 4.00253 0.245717 4.03283C0.275994 4.06314 0.31276 4.08617 0.35324 4.10019L7.22547 6.49086L4.61987 10.5576L0.575715 10.9498C0.527085 10.9545 0.48051 10.9718 0.440529 10.9999C0.400549 11.0279 0.368526 11.0659 0.347583 11.1101L0.0270679 11.7869C0.00840308 11.8264 -0.000841528 11.8698 6.01631e-05 11.9135C0.000961854 11.9572 0.0119852 12.0001 0.0322646 12.0388C0.0525439 12.0776 0.0815269 12.1111 0.116937 12.1367C0.152347 12.1623 0.19322 12.1794 0.236346 12.1866L4.90268 12.9804L7.57615 16.8774C7.60073 16.9133 7.63325 16.943 7.67119 16.9643C7.70912 16.9855 7.75144 16.9978 7.79486 17H7.80806C7.84944 16.9999 7.89031 16.9908 7.92778 16.9732C7.96524 16.9556 7.99839 16.93 8.02488 16.8982L8.50753 16.3326C8.53918 16.2951 8.56051 16.2499 8.56943 16.2017C8.57836 16.1534 8.57457 16.1037 8.55844 16.0573L7.21982 12.2168L9.75377 8.25746L14.3862 12.3337C14.4168 12.3604 14.4528 12.3803 14.4918 12.3919C14.5308 12.4034 14.5718 12.4064 14.6121 12.4007C14.6524 12.395 14.6909 12.3806 14.7251 12.3587C14.7594 12.3367 14.7884 12.3076 14.8104 12.2733L15.4156 11.3306C15.4436 11.2861 15.4586 11.2346 15.4589 11.182C15.4593 11.1293 15.4449 11.0777 15.4175 11.0328ZM14.5125 11.6926L9.8801 7.61832C9.84947 7.59155 9.81344 7.57171 9.77445 7.56014C9.73546 7.54856 9.69443 7.54554 9.65416 7.55127C9.6139 7.55699 9.57534 7.57134 9.54112 7.59332C9.5069 7.6153 9.47783 7.64441 9.45588 7.67865L6.66928 12.0301C6.64636 12.0662 6.6319 12.107 6.62701 12.1494C6.62211 12.1919 6.62689 12.2349 6.641 12.2752L7.97208 16.0931L7.83257 16.259L5.31746 12.5863C5.29586 12.5554 5.2683 12.5291 5.23639 12.509L5.18548 12.4788C5.1535 12.4579 5.11756 12.4438 5.0799 12.4374L0.690724 11.6832L0.783108 11.4947L4.80841 11.1063C4.85101 11.1023 4.89215 11.0887 4.92873 11.0665C4.9653 11.0442 4.99637 11.014 5.01957 10.9781L7.89478 6.49274C7.91799 6.45673 7.93271 6.41593 7.93784 6.3734C7.94297 6.33087 7.93837 6.28773 7.92439 6.24724C7.91041 6.20674 7.88741 6.16996 7.85713 6.13965C7.82685 6.10935 7.79009 6.08632 7.74961 6.0723L0.877377 3.67975L1.19412 3.18389L9.34088 3.93804C9.39246 3.94352 9.44455 3.9344 9.49121 3.91174C9.53787 3.88907 9.57724 3.85377 9.60483 3.80984L11.1678 1.37957C11.5958 0.721574 12.3028 0.393517 12.727 0.663127L12.8156 0.721574C12.9678 0.829225 13.0714 0.992462 13.1041 1.17595C13.1716 1.61624 13.0677 2.06565 12.8138 2.43162L11.1546 5.02403C11.1258 5.06939 11.1104 5.12204 11.1104 5.1758C11.1104 5.22956 11.1258 5.28221 11.1546 5.32757L14.8462 11.1723L14.5125 11.6926Z" fill="#DC0C1C"/>
</svg>
