<svg width="122" height="50" viewBox="0 0 122 50" fill="none" xmlns="http://www.w3.org/2000/svg">
  <g clip-path="url(#clip0_64_39154)">
    <path fill-rule="evenodd" clip-rule="evenodd" d="M97.1266 0.333969L95.3202 7.87904H94.5562C94.4525 5.01903 93.8741 4.90219 92.8208 3.6558C92.2833 3.02093 91.6104 2.51988 90.8537 2.191C90.097 1.86213 89.2765 1.71416 88.4551 1.75841C86.5196 1.75841 84.5804 2.52627 82.6377 4.06199C80.6949 5.59771 79.0286 7.95323 77.6389 11.1285C76.2805 14.2853 75.5853 17.697 75.5979 21.1441C75.5979 24.1562 76.2036 26.4579 77.4151 28.0493C78.6266 29.6407 80.0455 30.4289 81.6718 30.4141C82.5453 30.3669 83.4007 30.1418 84.1875 29.752L86.2995 21.7005C86.567 20.8326 86.7498 19.9399 86.8452 19.0353C86.8337 18.7701 86.7703 18.51 86.6587 18.2701C86.5472 18.0303 86.3898 17.8156 86.1958 17.6387C85.8247 17.1935 85.9175 17.0544 84.886 17.0544L85.088 16.192H95.162L94.9819 17.0544C94.6941 17.1558 94.4261 17.3084 94.1906 17.5051C93.7836 17.7637 93.4608 18.1393 93.2629 18.5846C92.9991 19.3093 92.7893 20.0533 92.6353 20.8103L90.1522 30.2193C87.3261 31.422 84.2922 32.035 81.2297 32.0221C79.0882 32.0861 76.967 31.5818 75.074 30.5588C73.2714 29.447 71.816 27.8357 70.8774 25.9126C69.7548 23.6761 69.1924 21.1911 69.2402 18.6792C69.2402 12.9109 71.5341 8.15168 76.1218 4.40141C79.5636 1.54002 83.8723 -0.0154938 88.3132 0.000116355C89.0428 -0.00251693 89.7719 0.0420865 90.4961 0.133657C90.9908 0.211556 91.864 0.422996 93.1155 0.767977C93.6479 0.939784 94.1967 1.05356 94.7527 1.10739C95.0682 1.1539 95.3901 1.10548 95.679 0.968094C95.9679 0.830704 96.2111 0.610314 96.3789 0.333969H97.1266Z" fill="#363636"/>
    <path fill-rule="evenodd" clip-rule="evenodd" d="M54.9041 18.7793C54.8277 18.1784 54.7677 17.6331 54.724 17.1546C54.6804 16.6761 54.6585 16.2309 54.6585 15.8637C54.5913 13.8069 55.3251 11.8065 56.6995 10.2995C57.2989 9.59753 58.0396 9.03542 58.8711 8.65136C59.7026 8.26731 60.6054 8.07033 61.5182 8.07381C62.5627 8.02119 63.5857 8.38885 64.3669 9.09762C64.7108 9.40169 64.9863 9.7778 65.1747 10.2003C65.363 10.6228 65.4598 11.0818 65.4584 11.5459C65.4809 12.6706 65.1072 13.7662 64.4051 14.634C63.3646 15.9286 61.6965 17.0748 59.4009 18.0727C60.1376 20.4764 60.6396 22.0288 60.918 22.7355C61.229 23.5264 61.5937 24.2943 62.0094 25.0335C62.5647 24.43 63.0199 23.7385 63.3573 22.9859C63.5933 22.4697 63.7321 21.9129 63.7666 21.3444C63.7731 21.0037 63.6631 20.6713 63.4556 20.4041C63.189 20.0975 62.83 19.8901 62.4351 19.8143L62.6315 19.2134H68.951L68.7054 19.8143C68.1557 19.9393 67.642 20.1926 67.2047 20.5543C66.3753 21.4129 65.6211 22.3439 64.9508 23.3364C64.2371 24.3312 63.4625 25.279 62.6315 26.1742C63.2743 27.1693 64.0877 28.0382 65.0327 28.7393C65.5018 29.0551 66.0532 29.2198 66.6153 29.2122C66.9204 29.2188 67.2234 29.16 67.5048 29.0397C67.8415 28.8648 68.152 28.6418 68.4271 28.3776H68.9728C68.5295 29.4269 67.8051 30.3275 66.8827 30.9761C66.0082 31.5613 64.9817 31.8656 63.9358 31.8497C63.0768 31.8646 62.2264 31.6741 61.4528 31.2933C60.5606 30.8021 59.7591 30.1563 59.0843 29.3847C58.0329 30.1571 56.8813 30.777 55.6627 31.2265C54.5554 31.6369 53.3865 31.8478 52.2083 31.8497C50.7289 31.9278 49.2786 31.4103 48.1699 30.4085C47.6993 29.9841 47.3226 29.4624 47.0648 28.8782C46.807 28.294 46.674 27.6606 46.6746 27.0199C46.6532 26.0524 46.8729 25.0952 47.3131 24.2378C47.9527 23.2296 48.7886 22.366 49.7689 21.7006C51.3737 20.5431 53.0952 19.5638 54.9041 18.7793ZM59.0843 16.8041C59.8725 16.2668 60.5493 15.5767 61.0762 14.7731C61.6423 13.8649 61.9433 12.8112 61.9439 11.7351C61.9845 11.0757 61.812 10.4209 61.4528 9.87105C61.3333 9.71689 61.1805 9.59299 61.0063 9.50901C60.8322 9.42503 60.6413 9.38326 60.4486 9.38696C60.2204 9.3847 59.9952 9.44113 59.7939 9.55102C59.5927 9.66091 59.4218 9.82073 59.2972 10.0157C58.8247 10.86 58.6082 11.8281 58.675 12.7978C58.675 13.3542 58.7078 13.9886 58.7733 14.6618C58.8388 15.3351 58.9588 16.0306 59.0843 16.8041ZM55.1497 20.0313C54.0949 20.5664 53.1646 21.3252 52.4211 22.257C51.8708 23.045 51.5873 23.9943 51.6134 24.9612C51.5808 26.1584 51.9987 27.323 52.7813 28.2162C53.109 28.6088 53.5151 28.9256 53.9724 29.1453C54.4298 29.3651 54.9279 29.4827 55.4335 29.4904C55.9064 29.4787 56.3737 29.3827 56.8141 29.2067C57.3839 28.9782 57.9319 28.6969 58.4513 28.3665C57.6822 27.1359 57.0333 25.8313 56.514 24.4715C55.9387 23.0328 55.4824 21.5475 55.1497 20.0313Z" fill="#363636"/>
    <path fill-rule="evenodd" clip-rule="evenodd" d="M38.5325 17.3882L36.0058 26.2464C35.7197 27.1017 35.5365 27.9892 35.4601 28.8894C35.4418 29.2003 35.4961 29.5111 35.6185 29.7965C35.7408 30.0818 35.9278 30.3335 36.1641 30.5309C36.6225 30.8925 36.1259 30.6588 37.321 31.1151L37.0208 31.9831H25.7517L26.0027 31.1151C26.6794 30.8035 26.2319 30.976 26.7667 30.7423C27.3149 30.4836 27.7776 30.0679 28.0983 29.546C28.3603 29.175 28.7514 28.0752 29.2716 26.2464L35.0399 6.07615C35.352 5.14437 35.5464 4.17581 35.6183 3.19389C35.6181 2.90702 35.5488 2.62458 35.4166 2.37137C35.2843 2.11816 35.0931 1.90192 34.8598 1.74163C34.5862 1.55478 34.3288 1.34443 34.0903 1.11288L34.134 0.217041H44.7101C48.1081 0.217041 50.5438 0.654759 52.0173 1.53019C53.1016 2.12863 53.9996 3.02515 54.6093 4.11791C55.219 5.21067 55.5159 6.45586 55.4662 7.71203C55.4662 10.3717 54.3166 12.7161 52.0173 14.7452C49.7179 16.7743 46.6401 17.7814 42.7837 17.7666C41.3596 17.7434 39.9389 17.617 38.5325 17.3882ZM38.9909 15.5798C39.814 15.6944 40.6432 15.7576 41.4739 15.769C43.584 15.769 45.2449 14.7841 46.4564 12.8144C47.6254 10.988 48.2561 8.85798 48.2736 6.67709C48.3103 6.05914 48.2232 5.44004 48.0178 4.85748C47.8123 4.27493 47.4927 3.74109 47.0785 3.28849C46.6498 2.86998 46.1414 2.54584 45.5847 2.33621C45.0279 2.12658 44.4349 2.03594 43.8424 2.06992C43.5477 2.06992 43.1875 2.06992 42.7509 2.11444L38.9909 15.5798Z" fill="#363636"/>
    <path fill-rule="evenodd" clip-rule="evenodd" d="M5.69106 44.803L4.83428 47.8077C4.74028 48.0979 4.68163 48.3988 4.65965 48.7035C4.65318 48.808 4.67051 48.9126 4.71027 49.0092C4.75003 49.1057 4.81115 49.1915 4.88885 49.26C5.22817 49.4263 5.6054 49.4955 5.98029 49.4603L5.87661 49.7552H0.692261L0.779576 49.4603C1.09374 49.4724 1.4076 49.4291 1.7073 49.3323C1.89224 49.2445 2.04783 49.1032 2.15479 48.9261C2.33389 48.5741 2.46778 48.2001 2.55317 47.8133L4.51231 40.9693C4.62249 40.6533 4.69219 40.3242 4.71968 39.99C4.71754 39.8931 4.69202 39.7983 4.64538 39.7138C4.59874 39.6294 4.53242 39.558 4.45228 39.5059C4.16995 39.3385 3.84496 39.261 3.51909 39.2833L3.60641 38.9884H7.78663C8.63572 38.9288 9.48626 39.0816 10.2642 39.4336C10.6321 39.6365 10.9366 39.9408 11.1431 40.3117C11.3496 40.6826 11.4497 41.1052 11.432 41.5313C11.4247 41.9921 11.316 42.4453 11.1138 42.8575C10.9117 43.2697 10.6213 43.6303 10.2642 43.9128C9.38092 44.6347 8.26759 44.9992 7.13722 44.9366C6.65256 44.9292 6.16914 44.8846 5.69106 44.803ZM5.84932 44.191C6.12783 44.231 6.40851 44.2533 6.68973 44.2577C7.03419 44.2624 7.37344 44.1717 7.67135 43.9953C7.96926 43.819 8.21468 43.5635 8.38146 43.2562C8.77656 42.6362 8.99045 41.9145 8.99813 41.1752C9.01049 40.9666 8.98159 40.7577 8.91315 40.5608C8.84472 40.3639 8.73814 40.183 8.59975 40.0289C8.45441 39.8889 8.28281 39.7802 8.09526 39.7095C7.9077 39.6387 7.70806 39.6073 7.50831 39.6172H7.14268L5.84932 44.191Z" fill="#363636"/>
    <path fill-rule="evenodd" clip-rule="evenodd" d="M14.6901 42.3882L13.5168 46.8396C14.4827 44.6584 15.2085 43.323 15.6996 42.8166C15.8134 42.684 15.9523 42.5762 16.108 42.4998C16.2637 42.4233 16.4329 42.3796 16.6055 42.3715C16.7095 42.366 16.8132 42.3859 16.9081 42.4294C17.003 42.473 17.0863 42.5389 17.1513 42.6219C17.2984 42.815 17.3704 43.0568 17.3532 43.3007C17.3699 43.7616 17.2418 44.2158 16.9875 44.5972C16.9319 44.6955 16.8526 44.7778 16.7571 44.8362C16.6616 44.8947 16.5531 44.9273 16.4418 44.931C16.3448 44.9328 16.2494 44.9059 16.1671 44.8536C16.0847 44.8013 16.0191 44.7257 15.978 44.6361C15.9204 44.5135 15.847 44.3994 15.7597 44.2967C15.723 44.2609 15.6741 44.2409 15.6232 44.2411C15.5662 44.2441 15.5104 44.2593 15.4595 44.2856C15.2851 44.4162 15.1338 44.5761 15.012 44.7585C14.7449 45.1491 14.5181 45.5668 14.3353 46.0049C14.0625 46.5613 13.8496 47.0733 13.7023 47.4739C13.4512 48.2222 13.2399 48.9837 13.0693 49.7552H11.1865L12.469 44.5137C12.5395 44.259 12.587 43.9983 12.6109 43.7347C12.6154 43.6185 12.589 43.5031 12.5345 43.4009C12.4859 43.3238 12.4155 43.2636 12.3325 43.2284C12.1552 43.1776 11.9705 43.1588 11.7868 43.1727L11.8523 42.9446L14.2098 42.416L14.6901 42.3882Z" fill="#363636"/>
    <path fill-rule="evenodd" clip-rule="evenodd" d="M22.3628 42.3882C22.7664 42.3874 23.1639 42.4887 23.5197 42.6831C23.8647 42.8592 24.1484 43.1388 24.3328 43.4843C24.5241 43.8345 24.6219 44.2298 24.6166 44.6306C24.6018 45.5355 24.3574 46.4212 23.9072 47.2012C23.4676 48.0292 22.8292 48.7299 22.0517 49.2377C21.3629 49.7033 20.5586 49.9599 19.7324 49.9778C19.4302 49.9954 19.1277 49.947 18.8453 49.8357C18.563 49.7243 18.3072 49.5527 18.0953 49.3323C17.7079 48.9047 17.5002 48.3395 17.5168 47.7576C17.5118 47.0464 17.657 46.3423 17.9424 45.6933C18.2151 45.0803 18.5837 44.5165 19.0339 44.0241C19.4738 43.5404 19.995 43.1409 20.5728 42.8445C21.1239 42.5455 21.7385 42.3889 22.3628 42.3882ZM22.0463 42.8111C21.7951 42.8021 21.5497 42.8894 21.3587 43.0559C20.7976 43.7436 20.3799 44.5407 20.1308 45.3984C19.7042 46.4593 19.4712 47.5907 19.4432 48.7369C19.4389 48.8468 19.456 48.9565 19.4935 49.0596C19.531 49.1628 19.588 49.2573 19.6615 49.3379C19.7251 49.413 19.8038 49.4733 19.8923 49.5146C19.9809 49.5559 20.0771 49.5772 20.1744 49.5771C20.3725 49.5812 20.5656 49.5142 20.7202 49.388C21.07 49.0135 21.3542 48.5806 21.5606 48.1082C21.9083 47.3972 22.1827 46.6513 22.3792 45.8825C22.5812 45.1582 22.6876 44.4098 22.6957 43.6568C22.709 43.4366 22.6473 43.2184 22.521 43.0392C22.464 42.967 22.3916 42.9089 22.3094 42.8694C22.2272 42.8299 22.1372 42.81 22.0463 42.8111Z" fill="#363636"/>
    <path fill-rule="evenodd" clip-rule="evenodd" d="M31.0889 47.8523L31.3236 48.0637C30.9089 48.6003 30.4046 49.0581 29.8338 49.4158C29.2223 49.7789 28.5276 49.9709 27.8201 49.9723C27.3849 49.9786 26.9552 49.8734 26.5704 49.6662C26.232 49.4709 25.9613 49.1735 25.7954 48.8149C25.6313 48.4675 25.5438 48.0876 25.5389 47.7021C25.5494 46.8022 25.7882 45.9204 26.232 45.1425C26.6693 44.3319 27.2999 43.6468 28.0656 43.1505C28.7263 42.69 29.5031 42.4331 30.3031 42.4105C30.7766 42.3745 31.2465 42.5171 31.6237 42.8111C31.7657 42.9308 31.8796 43.0814 31.9571 43.2518C32.0345 43.4222 32.0735 43.6082 32.0712 43.796C32.0787 44.1301 31.9572 44.4538 31.7329 44.6974C31.6426 44.812 31.529 44.9052 31.3999 44.9705C31.2708 45.0359 31.1293 45.0718 30.9852 45.0758C30.762 45.0799 30.5462 44.9939 30.3849 44.8365C30.2378 44.6898 30.1535 44.4898 30.1503 44.2801C30.1559 44.1297 30.1976 43.9831 30.2719 43.8531C30.3461 43.7231 30.4505 43.6137 30.5759 43.5345C30.7669 43.3898 30.8597 43.2563 30.8597 43.145C30.8609 43.1002 30.851 43.0558 30.831 43.016C30.811 42.9761 30.7814 42.942 30.7451 42.9168C30.6287 42.8286 30.4862 42.7835 30.3413 42.7889C29.875 42.8045 29.4329 43.0039 29.108 43.3453C28.5843 43.848 28.1843 44.4694 27.9401 45.1592C27.6844 45.8226 27.5476 46.5275 27.5363 47.2402C27.514 47.6934 27.6602 48.1385 27.9456 48.4866C28.0674 48.6303 28.2183 48.7455 28.3878 48.8242C28.5573 48.903 28.7416 48.9435 28.9279 48.9429C29.306 48.9379 29.6786 48.8487 30.0193 48.6814C30.4231 48.4749 30.7858 48.1937 31.0889 47.8523Z" fill="#363636"/>
    <path fill-rule="evenodd" clip-rule="evenodd" d="M36.7534 40.4519L36.1313 42.6108H37.1518L36.8789 43.5234H35.8748L34.5705 48.1305C34.502 48.3413 34.4599 48.56 34.445 48.7815C34.4483 48.8512 34.4776 48.9169 34.5269 48.9651C34.5468 48.9879 34.5712 49.006 34.5985 49.0185C34.6257 49.031 34.6553 49.0374 34.6851 49.0375C34.7853 49.0307 34.8809 48.9918 34.958 48.9262C35.2786 48.6457 35.5579 48.3196 35.7875 47.958L36.0604 48.1305C35.7712 48.681 35.3624 49.1569 34.8652 49.5216C34.4967 49.7964 34.0555 49.9515 33.5992 49.9667C33.2991 49.9839 33.0034 49.8867 32.7697 49.6941C32.6761 49.6046 32.6024 49.4957 32.5534 49.3748C32.5045 49.2539 32.4815 49.1237 32.4859 48.993C32.5036 48.6053 32.5715 48.2218 32.6878 47.8523L33.9157 43.5512H32.857L33.0152 42.9947C33.6106 42.7798 34.1757 42.4861 34.6961 42.1212C35.2961 41.6437 35.8449 41.1028 36.3332 40.5075L36.7534 40.4519Z" fill="#363636"/>
    <path fill-rule="evenodd" clip-rule="evenodd" d="M39.1056 46.7728C39.0624 47.0545 39.0387 47.339 39.0346 47.6241C39.0191 47.9735 39.1386 48.3151 39.3675 48.5756C39.4868 48.6966 39.6294 48.7912 39.7862 48.8534C39.943 48.9156 40.1107 48.9442 40.2789 48.9373C40.6583 48.9322 41.0316 48.839 41.3703 48.6646C41.839 48.4146 42.2693 48.0959 42.6473 47.7187L42.882 47.9357C42.405 48.5716 41.8143 49.1096 41.1411 49.5215C40.5633 49.8402 39.9152 50.003 39.2584 49.9945C38.9312 50.0328 38.5997 49.9952 38.2887 49.8844C37.9778 49.7736 37.6955 49.5924 37.463 49.3546C37.1246 48.9312 36.9465 48.3981 36.9609 47.8522C36.9771 46.9324 37.2333 46.0336 37.7031 45.2482C38.1928 44.3883 38.8897 43.6701 39.7277 43.1616C40.4998 42.6596 41.3934 42.3861 42.309 42.3715C42.6658 42.3449 43.0192 42.4583 43.2967 42.6887C43.4052 42.7913 43.491 42.9164 43.5484 43.0555C43.6058 43.1946 43.6335 43.3446 43.6296 43.4955C43.6239 43.8902 43.5106 44.2756 43.3022 44.6083C43.0209 45.1028 42.6327 45.5252 42.1671 45.8436C41.6939 46.1541 41.1767 46.3887 40.6336 46.5391C40.1322 46.6639 39.6208 46.7421 39.1056 46.7728ZM39.1765 46.361C39.5402 46.3179 39.8964 46.2243 40.2352 46.0828C40.5149 45.9469 40.7667 45.758 40.9774 45.5264C41.2461 45.2279 41.4638 44.8856 41.6213 44.5137C41.7845 44.1654 41.8755 43.7866 41.8888 43.4009C41.8933 43.2718 41.8483 43.146 41.7632 43.0503C41.7238 43.009 41.6761 42.9766 41.6234 42.9555C41.5707 42.9344 41.5142 42.925 41.4576 42.9279C41.2873 42.9559 41.1245 43.0198 40.9798 43.1156C40.8351 43.2114 40.7116 43.337 40.6172 43.4843C39.9384 44.3256 39.4468 45.3071 39.1765 46.361Z" fill="#363636"/>
    <path fill-rule="evenodd" clip-rule="evenodd" d="M47.4714 42.3882L46.2927 46.8396C47.2586 44.6584 47.9899 43.323 48.4755 42.8166C48.5893 42.684 48.7282 42.5762 48.8839 42.4998C49.0396 42.4233 49.2088 42.3796 49.3814 42.3715C49.4854 42.366 49.5891 42.3859 49.684 42.4294C49.7789 42.473 49.8623 42.5389 49.9272 42.6219C50.0744 42.815 50.1463 43.0568 50.1291 43.3007C50.1458 43.7616 50.0177 44.2158 49.7634 44.5972C49.7074 44.6952 49.628 44.7772 49.5326 44.8356C49.4372 44.8939 49.3289 44.9268 49.2177 44.931C49.1207 44.9328 49.0253 44.9059 48.943 44.8536C48.8607 44.8013 48.795 44.7257 48.7539 44.6361C48.6963 44.5135 48.6229 44.3994 48.5356 44.2967C48.4989 44.2609 48.45 44.2409 48.3991 44.2411C48.3421 44.2441 48.2864 44.2593 48.2354 44.2856C48.0597 44.4146 47.9081 44.5748 47.7879 44.7585C47.5216 45.1446 47.2931 45.5565 47.1058 45.9882C46.8384 46.5447 46.6256 47.0566 46.4782 47.4572C46.2271 48.2055 46.0158 48.967 45.8452 49.7385H43.9679L45.2503 44.5137C45.3209 44.259 45.3684 43.9983 45.3922 43.7347C45.3967 43.6185 45.3703 43.5031 45.3158 43.4009C45.2673 43.3238 45.1968 43.2636 45.1139 43.2284C44.9365 43.1779 44.7519 43.1591 44.5682 43.1727L44.6391 42.9446L46.9912 42.416L47.4714 42.3882Z" fill="#363636"/>
    <path fill-rule="evenodd" clip-rule="evenodd" d="M58.5387 43.8128C58.5005 43.5235 58.4732 43.2564 58.4513 43.0394C58.4295 42.8224 58.4186 42.6054 58.4186 42.4273C58.3868 41.4543 58.7341 40.5081 59.3845 39.7954C59.6691 39.4625 60.0206 39.1958 60.4151 39.0134C60.8096 38.831 61.2379 38.7371 61.6711 38.7382C62.1651 38.7145 62.6487 38.8882 63.019 39.2223C63.1805 39.3668 63.3099 39.5448 63.3983 39.7444C63.4868 39.944 63.5324 40.1606 63.532 40.3797C63.5421 40.9131 63.3639 41.4324 63.0299 41.8431C62.38 42.5682 61.57 43.1252 60.667 43.4678C61.0108 44.5807 61.2509 45.343 61.3819 45.6935C61.5376 46.0772 61.72 46.4491 61.9276 46.8063C62.1939 46.5227 62.4116 46.1954 62.5715 45.8382C62.681 45.5925 62.7457 45.3285 62.7625 45.0592C62.7655 44.8979 62.7135 44.7405 62.6152 44.614C62.4896 44.4698 62.3208 44.372 62.135 44.3358L62.2277 44.0521H65.2183L65.0982 44.3358C64.8392 44.3929 64.5976 44.5132 64.3942 44.6864C63.9913 45.0866 63.6259 45.5244 63.3028 45.994C62.9656 46.4646 62.6011 46.9142 62.2114 47.3405C62.5153 47.811 62.8998 48.2219 63.3465 48.5535C63.5678 48.7033 63.8285 48.7809 64.0941 48.7761C64.2378 48.7786 64.3806 48.7521 64.5143 48.6982C64.6731 48.6175 64.8201 48.5145 64.9509 48.3921H65.2019C64.9908 48.889 64.6489 49.3165 64.2141 49.6274C63.7982 49.9016 63.3123 50.0448 62.8171 50.0392C62.4115 50.0454 62.0099 49.9559 61.6438 49.7776C61.2328 49.5397 60.8638 49.2331 60.5524 48.8707C60.0505 49.2403 59.4991 49.5345 58.9152 49.7443C58.3899 49.9367 57.8362 50.0364 57.278 50.0392C56.578 50.0751 55.8921 49.8293 55.368 49.3548C55.1466 49.1533 54.9694 48.9064 54.8481 48.6302C54.7268 48.354 54.664 48.0549 54.664 47.7523C54.6546 47.2994 54.7579 46.8514 54.9642 46.4502C55.261 45.9655 55.6531 45.5487 56.1157 45.2261C56.871 44.6673 57.6834 44.1934 58.5387 43.8128ZM60.5251 42.8724C60.8982 42.6195 61.219 42.2944 61.4692 41.9154C61.7367 41.4843 61.8787 40.9845 61.8785 40.4743C61.8984 40.1628 61.8158 39.8534 61.6438 39.5951C61.5876 39.5216 61.5155 39.4622 61.4332 39.4217C61.3509 39.3812 61.2605 39.3606 61.169 39.3614C61.0617 39.3599 60.9557 39.3855 60.8604 39.436C60.7652 39.4865 60.6837 39.5603 60.6233 39.6508C60.3984 40.0526 60.2958 40.5136 60.3286 40.975C60.3286 41.2477 60.3286 41.5315 60.3723 41.8598C60.4159 42.188 60.4268 42.5108 60.4978 42.8724H60.5251ZM58.6533 44.4082C58.1575 44.6572 57.7202 45.0121 57.3708 45.4487C57.1095 45.8211 56.9754 46.2707 56.9888 46.7284C56.9719 47.2943 57.167 47.8454 57.5345 48.2697C57.687 48.4568 57.8769 48.6087 58.0914 48.7152C58.306 48.8217 58.5403 48.8804 58.7788 48.8874C59.0031 48.8829 59.2249 48.8377 59.4336 48.7538C59.6936 48.646 59.9422 48.5118 60.1758 48.3532C59.8113 47.7717 59.5041 47.1547 59.259 46.5114C58.9898 45.8299 58.7781 45.1263 58.626 44.4082H58.6533Z" fill="#363636"/>
    <path fill-rule="evenodd" clip-rule="evenodd" d="M82.2066 38.738L81.4589 42.1934H81.1643C81.1966 41.4122 80.9591 40.6443 80.493 40.0234C80.2745 39.7949 80.0103 39.6171 79.7184 39.5018C79.4265 39.3866 79.1137 39.3368 78.8013 39.3557C77.9885 39.3794 77.2037 39.6637 76.5584 40.168C75.7225 40.8149 75.0631 41.6693 74.6429 42.6497C74.1282 43.7531 73.8651 44.9611 73.8734 46.1829C73.816 47.0523 74.0636 47.9141 74.572 48.6145C74.766 48.8699 75.0138 49.0776 75.2972 49.2221C75.5806 49.3665 75.8923 49.4442 76.2091 49.4491C76.5421 49.4339 76.8694 49.3566 77.175 49.221L77.9882 46.3777C78.0892 46.0728 78.157 45.7574 78.1901 45.4373C78.1906 45.341 78.168 45.246 78.1243 45.1607C78.0805 45.0753 78.0169 45.0022 77.939 44.9477C77.6903 44.7825 77.3941 44.708 77.0986 44.7363L77.175 44.4358H81.7373L81.6663 44.7363C81.4443 44.7403 81.226 44.7955 81.0278 44.8976C80.8718 44.9847 80.746 45.1188 80.6676 45.2815C80.5659 45.5318 80.4856 45.7906 80.4275 46.055L79.4671 49.3935C78.367 49.8181 77.1998 50.0332 76.0236 50.0278C75.203 50.0519 74.3888 49.8744 73.6497 49.5103C72.9619 49.1357 72.3938 48.568 72.0125 47.8745C71.5793 47.0988 71.3588 46.2186 71.374 45.3261C71.3745 44.332 71.6176 43.3537 72.0816 42.4794C72.5456 41.6051 73.2158 40.8624 74.0317 40.3183C75.4028 39.3038 77.0582 38.7672 78.7522 38.7881C79.0347 38.7878 79.317 38.8026 79.598 38.8326C79.7945 38.8326 80.1438 38.9328 80.6131 39.0552C80.821 39.1194 81.035 39.1604 81.2516 39.1776C81.381 39.1674 81.5064 39.127 81.6181 39.0595C81.7298 38.9919 81.8247 38.8991 81.8955 38.7881L82.2066 38.738Z" fill="#363636"/>
    <path fill-rule="evenodd" clip-rule="evenodd" d="M89.4537 42.4995L87.9421 47.7855L87.7838 48.4087C87.7783 48.4679 87.7783 48.5275 87.7838 48.5868C87.7846 48.6478 87.8057 48.7067 87.8439 48.7537C87.8817 48.7926 87.9321 48.8163 87.9858 48.8205C88.1591 48.7885 88.3178 48.7007 88.4387 48.5701C88.6358 48.3374 88.8181 48.0921 88.9844 47.8356L89.2573 47.9803C88.9745 48.5756 88.5687 49.1014 88.0676 49.5215C87.6829 49.8286 87.2082 49.9951 86.7197 49.9945C86.5973 50.0034 86.4744 49.9873 86.3582 49.9472C86.242 49.9071 86.1349 49.8437 86.043 49.7608C85.9652 49.6838 85.9041 49.5911 85.8637 49.4885C85.8233 49.3859 85.8044 49.2759 85.8083 49.1654C85.8454 48.773 85.9278 48.3864 86.0539 48.0136L86.2449 47.3738C85.8018 48.2171 85.2119 48.9713 84.504 49.5994C84.2153 49.8435 83.8531 49.979 83.4781 49.9834C83.2673 49.9971 83.0571 49.9481 82.8731 49.8424C82.689 49.7368 82.539 49.5789 82.4412 49.388C82.2254 48.9678 82.1166 48.499 82.1247 48.0248C82.16 47.1304 82.3873 46.2548 82.7905 45.4597C83.1915 44.5529 83.7951 43.7544 84.5532 43.1283C85.0139 42.6936 85.6075 42.4342 86.234 42.3938C86.3624 42.388 86.4907 42.4081 86.6115 42.453C86.7323 42.4979 86.8433 42.5666 86.938 42.6553C87.1557 42.9227 87.2906 43.25 87.3254 43.5957L87.6037 42.6164L89.4537 42.4995ZM86.9598 44.013C86.984 43.6904 86.9158 43.3675 86.7633 43.0838C86.7216 43.02 86.6646 42.9682 86.5978 42.9331C86.531 42.8981 86.4565 42.881 86.3813 42.8834C86.1919 42.8955 86.0142 42.9811 85.8847 43.1227C85.3765 43.7054 84.9853 44.3841 84.7332 45.1203C84.3744 45.9401 84.1708 46.8218 84.1329 47.7187C84.1182 47.9313 84.1637 48.1438 84.2639 48.3308C84.2972 48.3837 84.3422 48.4279 84.3952 48.4598C84.4483 48.4917 84.508 48.5104 84.5695 48.5144C84.7095 48.5006 84.8451 48.4568 84.9674 48.3858C85.0896 48.3149 85.1958 48.2184 85.279 48.1027C85.6487 47.6657 85.9606 47.1812 86.2067 46.6615C86.6531 45.8491 86.9108 44.9429 86.9598 44.013Z" fill="#363636"/>
    <path fill-rule="evenodd" clip-rule="evenodd" d="M94.0105 42.3883L93.0118 45.8047C93.4628 45.0727 93.951 44.365 94.4743 43.6848C94.7879 43.2754 95.166 42.9219 95.593 42.6387C95.8617 42.4791 96.1662 42.3928 96.4771 42.3883C96.6147 42.3754 96.7533 42.3971 96.8807 42.4514C97.0082 42.5057 97.1207 42.591 97.2084 42.6999C97.3574 42.8957 97.438 43.1365 97.4376 43.3843C97.4125 43.7629 97.341 44.1367 97.2247 44.4972L96.8755 45.7769C97.3237 45.046 97.8101 44.3402 98.3326 43.6625C98.6681 43.229 99.0697 42.8532 99.5222 42.5497C99.7499 42.4165 100.007 42.3456 100.27 42.3438C100.398 42.3393 100.526 42.3628 100.644 42.4127C100.763 42.4626 100.87 42.5378 100.957 42.6331C101.051 42.7284 101.124 42.8424 101.172 42.9679C101.219 43.0933 101.241 43.2275 101.236 43.3621C101.218 43.8101 101.141 44.2536 101.007 44.6808L100.139 47.6465C100.043 47.9203 99.9775 48.2039 99.9424 48.4923C99.9433 48.5379 99.9608 48.5815 99.9915 48.6147C100.022 48.6464 100.063 48.6661 100.106 48.6703C100.162 48.67 100.216 48.6503 100.259 48.6147C100.484 48.4159 100.682 48.1876 100.848 47.9358C100.897 47.8746 100.963 47.7745 101.061 47.6465L101.323 47.819C101.044 48.4039 100.639 48.9174 100.139 49.3213C99.8034 49.6032 99.3887 49.7689 98.9547 49.7943C98.6766 49.8097 98.4033 49.7161 98.1907 49.5328C98.101 49.4553 98.0288 49.359 97.9789 49.2505C97.929 49.142 97.9026 49.0238 97.9014 48.904C97.9241 48.5538 97.9901 48.2079 98.0979 47.8746L98.9765 44.7754C99.0614 44.5147 99.1217 44.2464 99.1566 43.9741C99.1562 43.9534 99.151 43.933 99.1415 43.9147C99.1321 43.8963 99.1185 43.8805 99.102 43.8684C99.074 43.8362 99.0349 43.8163 98.9929 43.8128C98.9228 43.814 98.8538 43.8311 98.791 43.8628C98.6211 43.979 98.467 44.1174 98.3326 44.2746C98.0132 44.6543 97.7196 45.0559 97.4539 45.4765C97.1531 45.9018 96.8849 46.3501 96.6517 46.8174C96.4735 47.2241 96.3275 47.6446 96.2152 48.0749L95.7404 49.7108H93.7649L95.222 44.5194C95.2835 44.3394 95.3238 44.1527 95.342 43.963C95.3401 43.9434 95.3342 43.9244 95.3249 43.9072C95.3155 43.8899 95.3027 43.8749 95.2874 43.8628C95.2745 43.8476 95.2586 43.8353 95.2408 43.8266C95.2229 43.818 95.2035 43.8133 95.1837 43.8128C94.9927 43.8128 94.6871 44.0687 94.2724 44.5862C93.5861 45.4679 93.0054 46.4299 92.5425 47.4518L91.9149 49.7331H89.9285L91.391 44.6251C91.5074 44.2779 91.5808 43.9171 91.6093 43.5512C91.611 43.4762 91.59 43.4024 91.5493 43.3398C91.4998 43.2698 91.4287 43.2189 91.3473 43.1951C91.1696 43.1467 90.9853 43.1279 90.8016 43.1395L90.878 42.839L93.5357 42.3661L94.0105 42.3883Z" fill="#363636"/>
    <path fill-rule="evenodd" clip-rule="evenodd" d="M107.239 38.738L105.891 43.5233C106.184 43.1698 106.531 42.8656 106.917 42.6219C107.191 42.4669 107.499 42.3864 107.812 42.3882C108.084 42.3706 108.356 42.4255 108.601 42.5475C108.845 42.6694 109.055 42.8542 109.209 43.0837C109.524 43.547 109.689 44.1 109.678 44.6639C109.676 46.0939 109.128 47.4669 108.15 48.4921C107.769 48.9502 107.296 49.3198 106.764 49.5761C106.231 49.8323 105.65 49.9693 105.061 49.9777C104.104 49.9508 103.167 49.6852 102.333 49.2043L104.718 40.7801C104.803 40.5143 104.862 40.2402 104.892 39.9622C104.893 39.9017 104.879 39.8421 104.851 39.7886C104.824 39.7351 104.783 39.6896 104.734 39.6561C104.534 39.5384 104.302 39.4914 104.074 39.5226L104.155 39.2054L106.759 38.738H107.239ZM104.248 49.2822C104.445 49.4288 104.681 49.5121 104.925 49.5215C105.166 49.5296 105.406 49.472 105.618 49.3545C105.989 49.0982 106.305 48.7667 106.546 48.3808C106.899 47.8553 107.175 47.2797 107.364 46.6726C107.579 46.0291 107.689 45.3546 107.692 44.675C107.71 44.3682 107.621 44.0646 107.441 43.8182C107.371 43.7291 107.283 43.6567 107.183 43.6057C107.083 43.5548 106.974 43.5267 106.862 43.5233C106.672 43.5312 106.486 43.5859 106.321 43.6828C106.155 43.7797 106.015 43.9158 105.913 44.0797C105.637 44.5362 105.438 45.0364 105.323 45.5598L104.248 49.2822Z" fill="#363636"/>
    <path fill-rule="evenodd" clip-rule="evenodd" d="M115.223 38.738L112.641 47.6797C112.536 48.0038 112.461 48.3373 112.418 48.6757C112.418 48.7385 112.439 48.7995 112.478 48.8482C112.518 48.8908 112.573 48.9165 112.63 48.9205C112.728 48.9175 112.821 48.8779 112.892 48.8093C113.223 48.5054 113.505 48.1506 113.727 47.7576L114.033 47.9023C113.659 48.5663 113.165 49.1516 112.576 49.6272C112.271 49.8532 111.905 49.9759 111.528 49.9777C111.231 49.9911 110.939 49.892 110.71 49.6995C110.615 49.6136 110.539 49.5082 110.487 49.3902C110.436 49.2722 110.409 49.1444 110.409 49.0151C110.432 48.6931 110.494 48.3752 110.595 48.0692L112.696 40.7467C112.782 40.4868 112.841 40.2182 112.871 39.9455C112.871 39.8844 112.857 39.8242 112.828 39.7706C112.799 39.717 112.758 39.6719 112.707 39.6394C112.507 39.5217 112.275 39.4747 112.047 39.5059L112.128 39.2054L114.753 38.738H115.223Z" fill="#363636"/>
    <path fill-rule="evenodd" clip-rule="evenodd" d="M117.1 46.7728C117.057 47.0546 117.033 47.339 117.029 47.6242C117.013 47.9735 117.133 48.3152 117.362 48.5757C117.481 48.6966 117.624 48.7912 117.781 48.8535C117.937 48.9157 118.105 48.9442 118.273 48.9373C118.653 48.9323 119.026 48.839 119.365 48.6647C119.833 48.4147 120.264 48.096 120.642 47.7188L120.876 47.9358C120.393 48.5738 119.795 49.112 119.114 49.5216C118.538 49.8408 117.892 50.0036 117.236 49.9945C116.908 50.0338 116.576 49.9966 116.264 49.8857C115.952 49.7749 115.669 49.5933 115.435 49.3546C115.104 48.9401 114.927 48.4202 114.933 47.8857C114.95 46.9659 115.206 46.0671 115.676 45.2816C116.165 44.4218 116.862 43.7036 117.7 43.1951C118.472 42.693 119.366 42.4195 120.281 42.4049C120.638 42.3783 120.992 42.4918 121.269 42.7221C121.378 42.8248 121.464 42.9498 121.521 43.0889C121.578 43.2281 121.606 43.378 121.602 43.5289C121.596 43.9237 121.483 44.309 121.275 44.6418C120.99 45.1261 120.602 45.5388 120.14 45.8492C119.666 46.1597 119.149 46.3943 118.606 46.5447C118.112 46.6663 117.608 46.7426 117.1 46.7728ZM117.171 46.3611C117.535 46.3187 117.891 46.2251 118.23 46.0829C118.509 45.9469 118.761 45.7581 118.972 45.5265C119.235 45.2268 119.447 44.8845 119.599 44.5138C119.765 44.1664 119.856 43.787 119.867 43.4009C119.871 43.2719 119.826 43.1461 119.741 43.0504C119.702 43.009 119.654 42.9767 119.601 42.9556C119.549 42.9345 119.492 42.9251 119.436 42.928C119.265 42.9566 119.103 43.0208 118.958 43.1165C118.814 43.2123 118.69 43.3375 118.595 43.4844C117.922 44.3271 117.436 45.3086 117.171 46.3611Z" fill="#363636"/>
  </g>
  <defs>
    <clipPath id="clip0_64_39154">
      <rect width="120.932" height="50" fill="white" transform="translate(0.692261)"/>
    </clipPath>
  </defs>
</svg>
