<svg width="20" height="18" viewBox="0 0 20 18" fill="none" xmlns="http://www.w3.org/2000/svg">
  <path d="M19.6667 12.2222H14.7778L18.3867 6.99333C18.421 6.94338 18.4411 6.885 18.4447 6.82447C18.4484 6.76395 18.4355 6.70358 18.4073 6.64987C18.3792 6.59615 18.337 6.55112 18.2852 6.51962C18.2334 6.48812 18.174 6.47135 18.1133 6.47111H16.8889V2.33333C16.8889 2.24493 16.8538 2.16014 16.7913 2.09763C16.7287 2.03512 16.644 2 16.5556 2H13.6667C13.5783 2 13.4935 2.03512 13.431 2.09763C13.3685 2.16014 13.3333 2.24493 13.3333 2.33333V4H10.7778C10.6894 4 10.6046 4.03512 10.5421 4.09763C10.4796 4.16014 10.4444 4.24493 10.4444 4.33333V6.44444H9.92222H7.77778V2.33333C7.77778 2.24493 7.74266 2.16014 7.68015 2.09763C7.61763 2.03512 7.53285 2 7.44444 2H6V0.333333C6 0.244928 5.96488 0.160143 5.90237 0.097631C5.83986 0.0351189 5.75507 0 5.66667 0C5.57826 0 5.49348 0.0351189 5.43096 0.097631C5.36845 0.160143 5.33333 0.244928 5.33333 0.333333V2H3.88889C3.80048 2 3.7157 2.03512 3.65319 2.09763C3.59067 2.16014 3.55556 2.24493 3.55556 2.33333V6.43333C1.55556 6.43333 1.51778 6.48222 1.43111 6.56889C1.38051 6.61955 1.34757 6.68516 1.33717 6.756C1.32676 6.82684 1.33944 6.89915 1.37333 6.96222L4.17556 12.2222H0.333333C0.244928 12.2222 0.160143 12.2573 0.097631 12.3199C0.0351189 12.3824 0 12.4671 0 12.5556C0 12.644 0.0351189 12.7287 0.097631 12.7913C0.160143 12.8538 0.244928 12.8889 0.333333 12.8889H19.6667C19.7551 12.8889 19.8399 12.8538 19.9024 12.7913C19.9649 12.7287 20 12.644 20 12.5556C20 12.4671 19.9649 12.3824 19.9024 12.3199C19.8399 12.2573 19.7551 12.2222 19.6667 12.2222ZM14 2.66667H16.2222V6.46222L14 6.44444V2.66667ZM11.1111 4.66667H13.3333V6.44444H11.1111V4.66667ZM4.22222 2.66667H7.11111V6.43111H4.22222V2.66667ZM4.90667 12.1756L2.20889 7.11111C2.57333 7.11111 3.12444 7.11111 3.81556 7.09778C3.86445 7.10983 3.91555 7.10983 3.96444 7.09778C4.89778 7.09778 6.06444 7.09778 7.36444 7.09778C7.41751 7.11256 7.4736 7.11256 7.52667 7.09778C10.5978 7.09778 14.3644 7.11556 17.48 7.13111L14.0333 12.1444C14.0189 12.1688 14.0077 12.195 14 12.2222H4.92444C4.9197 12.2062 4.91376 12.1906 4.90667 12.1756Z" fill="#DC0C1C"/>
  <path d="M16.3333 14.6665H3.66659C3.57818 14.6665 3.4934 14.7016 3.43088 14.7641C3.36837 14.8266 3.33325 14.9114 3.33325 14.9998C3.33325 15.0882 3.36837 15.173 3.43088 15.2355C3.4934 15.2981 3.57818 15.3332 3.66659 15.3332H16.3333C16.4217 15.3332 16.5064 15.2981 16.569 15.2355C16.6315 15.173 16.6666 15.0882 16.6666 14.9998C16.6666 14.9114 16.6315 14.8266 16.569 14.7641C16.5064 14.7016 16.4217 14.6665 16.3333 14.6665Z" fill="#DC0C1C"/>
  <path d="M13.6666 17.333H6.77767C6.68926 17.333 6.60448 17.3681 6.54197 17.4306C6.47945 17.4932 6.44434 17.5779 6.44434 17.6663C6.44434 17.7547 6.47945 17.8395 6.54197 17.902C6.60448 17.9646 6.68926 17.9997 6.77767 17.9997H13.6666C13.755 17.9997 13.8397 17.9646 13.9023 17.902C13.9648 17.8395 13.9999 17.7547 13.9999 17.6663C13.9999 17.5779 13.9648 17.4932 13.9023 17.4306C13.8397 17.3681 13.755 17.333 13.6666 17.333Z" fill="#DC0C1C"/>
  <path d="M5.66659 5.55566C5.75499 5.55566 5.83978 5.52055 5.90229 5.45803C5.9648 5.39552 5.99992 5.31074 5.99992 5.22233V3.889C5.99992 3.80059 5.9648 3.71581 5.90229 3.6533C5.83978 3.59078 5.75499 3.55566 5.66659 3.55566C5.57818 3.55566 5.4934 3.59078 5.43088 3.6533C5.36837 3.71581 5.33325 3.80059 5.33325 3.889V5.22233C5.33325 5.31074 5.36837 5.39552 5.43088 5.45803C5.4934 5.52055 5.57818 5.55566 5.66659 5.55566Z" fill="#DC0C1C"/>
</svg>
