<svg width="50" height="50" viewBox="0 0 50 50" fill="none" xmlns="http://www.w3.org/2000/svg">
  <path d="M2.48066 14.1305C0.891406 17.4172 0 21.1045 0 25C0 28.8955 0.891406 32.5828 2.48066 35.8695L25 38.0435L47.5193 35.8695C49.1086 32.5828 50 28.8955 50 25C50 21.1045 49.1086 17.4172 47.5193 14.1305L25 11.9565L2.48066 14.1305Z" fill="#F0F0F0"/>
  <path d="M2.48157 35.8695C6.52522 44.2318 15.0886 50 25 50C34.9114 50 43.4749 44.2318 47.5185 35.8695H2.48157Z" fill="#6DA544"/>
  <path d="M2.48157 14.1305H47.5185C43.4749 5.76816 34.9114 0 25 0C15.0886 0 6.52522 5.76816 2.48157 14.1305Z" fill="#D80027"/>
  <path d="M20.6521 31.5218H29.3478V27.8261L27.6086 28.6956L25 26.0869L22.3913 28.6956L20.6521 27.8261V31.5218Z" fill="#FFDA44"/>
  <path d="M15.6769 27.174L16.0817 28.4195H17.3912L16.3317 29.1893L16.7365 30.4348L15.6769 29.6651L14.6173 30.4348L15.0221 29.1893L13.9625 28.4195H15.2721L15.6769 27.174Z" fill="#FFDA44"/>
  <path d="M16.9317 22.826L17.3365 24.0716H18.6461L17.5865 24.8414L17.9912 26.0869L16.9317 25.3172L15.8721 26.0869L16.2769 24.8414L15.2173 24.0716H16.5269L16.9317 22.826Z" fill="#FFDA44"/>
  <path d="M20.5188 19.5652L20.9236 20.8108H22.2331L21.1737 21.5806L21.5783 22.8261L20.5188 22.0564L19.4593 22.8261L19.864 21.5806L18.8044 20.8108H20.1141L20.5188 19.5652Z" fill="#FFDA44"/>
  <path d="M34.323 27.174L33.9182 28.4195H32.6086L33.6682 29.1893L33.2634 30.4348L34.323 29.6651L35.3825 30.4348L34.9778 29.1893L36.0374 28.4195H34.7278L34.323 27.174Z" fill="#FFDA44"/>
  <path d="M33.0682 22.826L32.6634 24.0716H31.3538L32.4134 24.8414L32.0086 26.0869L33.0682 25.3172L34.1277 26.0869L33.723 24.8414L34.7825 24.0716H33.473L33.0682 22.826Z" fill="#FFDA44"/>
  <path d="M29.4811 19.5652L29.0763 20.8108H27.7668L28.8262 21.5806L28.4215 22.8261L29.4811 22.0564L30.5406 22.8261L30.1359 21.5806L31.1954 20.8108H29.8858L29.4811 19.5652Z" fill="#FFDA44"/>
  <path d="M24.9999 17.9347L25.4047 19.1802H26.7143L25.6547 19.95L26.0595 21.1955L24.9999 20.4258L23.9404 21.1955L24.3452 19.95L23.2856 19.1802H24.5952L24.9999 17.9347Z" fill="#FFDA44"/>
</svg>
