<svg width="17" height="12" viewBox="0 0 17 12" fill="none" xmlns="http://www.w3.org/2000/svg">
  <path d="M0.85 11.9H16.15C16.6194 11.9 17 11.5194 17 11.05V10.7667C17 10.2972 16.6194 9.91667 16.15 9.91667H14.0927C14.2926 9.67519 14.4147 9.37886 14.4429 9.06667H14.7299C15.5658 9.06669 16.3339 8.60664 16.7284 7.86966C17.1229 7.13268 17.0797 6.23841 16.6161 5.54285L13.5938 1.00952C13.174 0.37816 12.4658 -0.000881562 11.7076 1.53972e-06H0.85C0.380558 1.53972e-06 0 0.38056 0 0.850002V8.78333C0 8.93982 0.126853 9.06667 0.283333 9.06667H7.65708C7.68532 9.37886 7.80741 9.67519 8.00728 9.91667H0.85C0.380558 9.91667 0 10.2972 0 10.7667V11.05C0 11.5194 0.380558 11.9 0.85 11.9V11.9ZM12.8917 9.91667C12.4001 9.91527 11.984 9.55334 11.9144 9.06667H13.8694C13.7999 9.55355 13.3835 9.91556 12.8917 9.91667ZM11.3404 9.06667C11.3687 9.37886 11.4907 9.67519 11.6906 9.91667H10.4094C10.6093 9.67519 10.7313 9.37886 10.7596 9.06667H11.3404ZM15.262 4.53333H11.3333C11.1769 4.53333 11.05 4.40648 11.05 4.25V2.26667C11.05 2.11019 11.1769 1.98333 11.3333 1.98333H13.562L15.262 4.53333ZM0.566667 6.51667H1.41667V6.8C1.41667 7.26944 1.79722 7.65 2.26667 7.65H4.25C4.71944 7.65 5.1 7.26944 5.1 6.8V6.51667H11.6167C11.7731 6.51667 11.9 6.38982 11.9 6.23333C11.9 6.07685 11.7731 5.95 11.6167 5.95H5.1V2.26667C5.1 1.79723 4.71944 1.41667 4.25 1.41667H2.26667C1.79722 1.41667 1.41667 1.79723 1.41667 2.26667V5.95H0.566667V0.850002C0.566667 0.693521 0.693519 0.566668 0.85 0.566668H11.7076C12.2762 0.566049 12.8072 0.850296 13.122 1.32373L13.1841 1.41667H11.3333C10.8639 1.41667 10.4833 1.79723 10.4833 2.26667V4.25C10.4833 4.71944 10.8639 5.1 11.3333 5.1H15.64L16.1446 5.85707C16.165 5.8871 16.18 5.91912 16.1982 5.95H13.0333C12.8769 5.95 12.75 6.07685 12.75 6.23333C12.75 6.38982 12.8769 6.51667 13.0333 6.51667H16.4084C16.4904 7.01022 16.3514 7.51489 16.0282 7.8968C15.705 8.27872 15.2303 8.49928 14.7299 8.5H0.566667V6.51667ZM4.53333 6.8C4.53333 6.95648 4.40648 7.08333 4.25 7.08333H2.26667C2.11019 7.08333 1.98333 6.95648 1.98333 6.8V2.26667C1.98333 2.11019 2.11019 1.98333 2.26667 1.98333H4.25C4.40648 1.98333 4.53333 2.11019 4.53333 2.26667V6.8ZM8.23112 9.06667H10.1861C10.1185 9.55466 9.70127 9.91799 9.20862 9.91799C8.71596 9.91799 8.29877 9.55466 8.23112 9.06667V9.06667ZM0.566667 10.7667C0.566667 10.6102 0.693519 10.4833 0.85 10.4833H16.15C16.3065 10.4833 16.4333 10.6102 16.4333 10.7667V11.05C16.4333 11.2065 16.3065 11.3333 16.15 11.3333H0.85C0.693519 11.3333 0.566667 11.2065 0.566667 11.05V10.7667Z" fill="#DC0C1C"/>
  <path d="M8.78335 1.4165H6.80001C6.33057 1.4165 5.95001 1.79706 5.95001 2.2665V4.24984C5.95001 4.71928 6.33057 5.09984 6.80001 5.09984H8.78335C9.25279 5.09984 9.63335 4.71928 9.63335 4.24984V2.2665C9.63335 1.79706 9.25279 1.4165 8.78335 1.4165ZM9.06668 4.24984C9.06668 4.40632 8.93983 4.53317 8.78335 4.53317H6.80001C6.64353 4.53317 6.51668 4.40632 6.51668 4.24984V2.2665C6.51668 2.11002 6.64353 1.98317 6.80001 1.98317H8.78335C8.93983 1.98317 9.06668 2.11002 9.06668 2.2665V4.24984Z" fill="#DC0C1C"/>
  <path d="M3.68332 2.5498H2.83332C2.67684 2.5498 2.54999 2.67666 2.54999 2.83314C2.54999 2.98962 2.67684 3.11647 2.83332 3.11647H3.68332C3.8398 3.11647 3.96665 2.98962 3.96665 2.83314C3.96665 2.67666 3.8398 2.5498 3.68332 2.5498Z" fill="#DC0C1C"/>
  <path d="M3.68332 3.68311H2.83332C2.67684 3.68311 2.54999 3.80996 2.54999 3.96644C2.54999 4.12292 2.67684 4.24977 2.83332 4.24977H3.68332C3.8398 4.24977 3.96665 4.12292 3.96665 3.96644C3.96665 3.80996 3.8398 3.68311 3.68332 3.68311Z" fill="#DC0C1C"/>
</svg>
