<svg width="50" height="50" viewBox="0 0 50 50" fill="none" xmlns="http://www.w3.org/2000/svg">
  <path d="M24.9999 0C23.1333 0 21.315 0.206348 19.5652 0.594238L18.4783 24.9999L19.5652 49.4057C21.3151 49.7936 23.1333 50 24.9999 50C38.807 50 49.9999 38.807 49.9999 24.9999C49.9998 11.1929 38.807 0 24.9999 0Z" fill="#496E2D"/>
  <path d="M6.52168 8.16125C2.47051 12.6042 0 18.5134 0 24.9999C0 31.4865 2.47061 37.3956 6.52178 41.8388L7.60869 24.9999L6.52168 8.16125Z" fill="#496E2D"/>
  <path d="M36.5644 18.8572C37.7944 15.4289 36.4126 11.7003 33.447 9.84326C33.9804 9.9127 34.5144 10.0383 35.0414 10.2272C38.9968 11.6464 41.0528 16.003 39.6337 19.9583C38.2145 23.9139 33.8579 25.9697 29.9025 24.5506C29.3755 24.3615 28.8834 24.1188 28.4276 23.8334C31.8973 24.2853 35.3344 22.2855 36.5644 18.8572Z" fill="#F0F0F0"/>
  <path d="M29.7424 8.90356L28.6736 10.2846L27.0301 9.69487L28.0131 11.138L26.9445 12.5189L28.6207 12.03L29.6039 13.473L29.6567 11.7277L31.333 11.2387L29.6896 10.6492L29.7424 8.90356Z" fill="#F0F0F0"/>
  <path d="M32.6284 13.4034L31.5595 14.7844L29.916 14.1947L30.8991 15.6378L29.8303 17.0187L31.5066 16.5296L32.4898 17.9729L32.5427 16.2275L34.219 15.7384L32.5754 15.1488L32.6284 13.4034Z" fill="#F0F0F0"/>
  <path d="M24.6542 10.5424L23.5853 11.9232L21.9418 11.3337L22.925 12.7767L21.8562 14.1577L23.5324 13.6687L24.5156 15.1118L24.5685 13.3665L26.2448 12.8775L24.6013 12.2878L24.6542 10.5424Z" fill="#F0F0F0"/>
  <path d="M24.5371 15.6969L23.4683 17.0779L21.8248 16.4882L22.808 17.9314L21.739 19.3122L23.4155 18.8234L24.3986 20.2663L24.4514 18.521L26.1278 18.0321L24.4841 17.4423L24.5371 15.6969Z" fill="#F0F0F0"/>
  <path d="M29.4418 17.4568L28.373 18.8376L26.7295 18.248L27.7127 19.6912L26.6438 21.0719L28.3203 20.5831L29.3034 22.0262L29.3562 20.2807L31.0326 19.7918L29.3889 19.2022L29.4418 17.4568Z" fill="#F0F0F0"/>
  <path d="M6.52173 8.16123V41.8387C9.92798 45.5744 14.4524 48.2722 19.5652 49.4056V0.594238C14.4523 1.72764 9.92808 4.42539 6.52173 8.16123Z" fill="#D80027"/>
  <path d="M11.4992 13.1625L9.31555 11.5358V9.2353L11.4992 7.60864H14.5876L16.7713 9.2353V11.5358L14.5876 13.1625H11.4992Z" fill="#F0F0F0"/>
  <path d="M13.0435 7.60864H11.4992L9.31555 9.2353V10.36H13.0435V7.60864Z" fill="#FF9811"/>
  <path d="M13.0435 13.1625H14.5876L16.7713 11.5357V10.3622H13.0435V13.1625Z" fill="#FF9811"/>
  <path d="M11.4992 42.3911L9.31555 40.7644V38.464L11.4992 36.8372H14.5876L16.7713 38.464V40.7644L14.5876 42.3911H11.4992Z" fill="#F0F0F0"/>
  <path d="M13.0435 36.8372H11.4992L9.31555 38.464V39.5887H13.0435V36.8372Z" fill="#FF9811"/>
  <path d="M13.0435 42.3911H14.5876L16.7713 40.7644V39.5909H13.0435V42.3911Z" fill="#FF9811"/>
  <path d="M11.4992 27.7769L9.31555 26.1502V23.8498L11.4992 22.223H14.5876L16.7713 23.8498V26.1502L14.5876 27.7769H11.4992Z" fill="#496E2D"/>
  <path d="M16.8477 31.356H15.8966V30.4049H14.2252L13.0433 29.2231L11.8616 30.4049H10.1902V31.356H9.23914V33.2581H10.1902V34.2092H11.8615L13.0434 35.3912L14.2252 34.2092H15.8966V33.2581H16.8477V31.356Z" fill="#496E2D"/>
  <path d="M16.8477 16.7417H15.8966V15.7905H14.2252L13.0433 14.6086L11.8616 15.7905H10.1902V16.7417H9.23914V18.6438H10.1902V19.5949H11.8615L13.0434 20.7769L14.2252 19.5949H15.8966V18.6438H16.8477V16.7417Z" fill="#496E2D"/>
</svg>
