<svg width="50" height="50" viewBox="0 0 50 50" fill="none" xmlns="http://www.w3.org/2000/svg">
  <path d="M1.18047 17.3913C0.41465 19.7906 -9.76394e-05 22.3465 1.72417e-08 24.9998C-9.76394e-05 27.6531 0.414748 30.2093 1.18057 32.6085L25.0001 33.6956L48.8196 32.6087C49.5854 30.2094 50.0003 27.6531 50.0003 25C50.0002 22.3466 49.5854 19.7906 48.8196 17.3912L25.0001 16.3043L1.18047 17.3913Z" fill="#F0F0F0"/>
  <path d="M48.8195 17.3914L25 16.3044L1.18037 17.3914C0.953419 18.1027 0.758008 18.828 0.594238 19.5653H49.4054C49.2418 18.8279 49.0465 18.1025 48.8195 17.3914Z" fill="#D80027"/>
  <path d="M0.594482 30.4347C0.758057 31.172 0.953468 31.8972 1.18042 32.6085L1.18277 32.6086L24.9999 33.6955L48.8194 32.6086C49.0463 31.8973 49.2417 31.172 49.4054 30.4347H0.594482Z" fill="#D80027"/>
  <path d="M25 50C36.1539 50 45.6002 42.695 48.8195 32.6086H1.18054C4.39979 42.6949 13.8463 50 25 50Z" fill="#6DA544"/>
  <path d="M24.9999 9.79113e-10C13.8462 9.76576e-05 4.39987 7.30511 1.18042 17.3914L48.8194 17.3915C45.6003 7.30501 36.1539 -9.76557e-05 24.9999 9.79113e-10Z" fill="#338AF3"/>
  <path d="M11.4244 10.3262C11.4244 7.98465 13.07 6.02859 15.2676 5.54871C14.9299 5.47488 14.5794 5.43494 14.2195 5.43494C11.5181 5.43494 9.32812 7.62479 9.32812 10.3263C9.32812 13.0277 11.5179 15.2176 14.2195 15.2176C14.5794 15.2176 14.9298 15.1776 15.2676 15.1038C13.0701 14.6237 11.4244 12.6677 11.4244 10.3262Z" fill="#F0F0F0"/>
  <path d="M18.1586 12.5494L18.4897 13.5685H19.5611L18.6943 14.1984L19.0254 15.2174L18.1586 14.5876L17.2916 15.2174L17.6228 14.1984L16.7559 13.5685H17.8273L18.1586 12.5494Z" fill="#F0F0F0"/>
  <path d="M21.5786 12.5494L21.9097 13.5685H22.9812L22.1143 14.1984L22.4455 15.2174L21.5786 14.5876L20.7117 15.2174L21.0428 14.1984L20.176 13.5685H21.2474L21.5786 12.5494Z" fill="#F0F0F0"/>
  <path d="M24.9986 12.5494L25.3296 13.5685H26.4012L25.5343 14.1984L25.8654 15.2174L24.9986 14.5876L24.1316 15.2174L24.4628 14.1984L23.5958 13.5685H24.6674L24.9986 12.5494Z" fill="#F0F0F0"/>
  <path d="M28.4186 12.5494L28.7498 13.5685H29.8212L28.9544 14.1984L29.2855 15.2174L28.4186 14.5876L27.5516 15.2174L27.8829 14.1984L27.0159 13.5685H28.0874L28.4186 12.5494Z" fill="#F0F0F0"/>
  <path d="M31.8386 12.5494L32.1697 13.5685H33.2412L32.3744 14.1984L32.7056 15.2174L31.8386 14.5876L30.9717 15.2174L31.3028 14.1984L30.436 13.5685H31.5074L31.8386 12.5494Z" fill="#F0F0F0"/>
  <path d="M21.5786 8.99207L21.9097 10.011H22.9812L22.1143 10.641L22.4455 11.6599L21.5786 11.0302L20.7117 11.6599L21.0428 10.641L20.176 10.011H21.2474L21.5786 8.99207Z" fill="#F0F0F0"/>
  <path d="M24.9986 8.99207L25.3296 10.011H26.4012L25.5343 10.641L25.8654 11.6599L24.9986 11.0302L24.1316 11.6599L24.4628 10.641L23.5958 10.011H24.6674L24.9986 8.99207Z" fill="#F0F0F0"/>
  <path d="M28.4186 8.99207L28.7498 10.011H29.8212L28.9544 10.641L29.2855 11.6599L28.4186 11.0302L27.5516 11.6599L27.8829 10.641L27.0159 10.011H28.0874L28.4186 8.99207Z" fill="#F0F0F0"/>
  <path d="M31.8386 8.99207L32.1697 10.011H33.2412L32.3744 10.641L32.7056 11.6599L31.8386 11.0302L30.9717 11.6599L31.3028 10.641L30.436 10.011H31.5074L31.8386 8.99207Z" fill="#F0F0F0"/>
  <path d="M24.9986 5.43469L25.3296 6.45384H26.4012L25.5343 7.08362L25.8654 8.10277L24.9986 7.47298L24.1316 8.10277L24.4628 7.08362L23.5958 6.45384H24.6674L24.9986 5.43469Z" fill="#F0F0F0"/>
  <path d="M28.4186 5.43469L28.7498 6.45384H29.8212L28.9544 7.08362L29.2855 8.10277L28.4186 7.47298L27.5516 8.10277L27.8829 7.08362L27.0159 6.45384H28.0874L28.4186 5.43469Z" fill="#F0F0F0"/>
  <path d="M31.8386 5.43469L32.1697 6.45384H33.2412L32.3744 7.08362L32.7056 8.10277L31.8386 7.47298L30.9717 8.10277L31.3028 7.08362L30.436 6.45384H31.5074L31.8386 5.43469Z" fill="#F0F0F0"/>
</svg>
